<svg width="600" height="600" viewBox="0 0 600 600" fill="none" xmlns="http://www.w3.org/2000/svg">
  <rect width="600" height="600" fill="#1a1a1a"/>
  <path d="M300 200C255.817 200 220 235.817 220 280C220 324.183 255.817 360 300 360C344.183 360 380 324.183 380 280C380 235.817 344.183 200 300 200ZM300 340C266.863 340 240 313.137 240 280C240 246.863 266.863 220 300 220C333.137 220 360 246.863 360 280C360 313.137 333.137 340 300 340Z" fill="#333333"/>
  <path d="M420 160H180C157.909 160 140 177.909 140 200V400C140 422.091 157.909 440 180 440H420C442.091 440 460 422.091 460 400V200C460 177.909 442.091 160 420 160ZM440 400C440 411.046 431.046 420 420 420H180C168.954 420 160 411.046 160 400V200C160 188.954 168.954 180 180 180H420C431.046 180 440 188.954 440 200V400Z" fill="#333333"/>
  <path d="M200 380L260 320L300 360L380 280L420 320V400H180V380H200Z" fill="#333333"/>
</svg>