<svg width="400" height="400" viewBox="0 0 400 400" fill="none" xmlns="http://www.w3.org/2000/svg">
  <rect width="400" height="400" fill="#F3F4F6"/>
  <path d="M170 170H230V230H170V170Z" fill="#E5E7EB"/>
  <path d="M190 150L210 130L230 150V170H190V150Z" fill="#E5E7EB"/>
  <path d="M150 190L130 210L150 230H170V190H150Z" fill="#E5E7EB"/>
  <path d="M250 190H230V230H250L270 210L250 190Z" fill="#E5E7EB"/>
  <path d="M190 250V230H230V250L210 270L190 250Z" fill="#E5E7EB"/>
  <path d="M200 200C211.046 200 220 191.046 220 180C220 168.954 211.046 160 200 160C188.954 160 180 168.954 180 180C180 191.046 188.954 200 200 200Z" fill="#D1D5DB"/>
</svg>