<?xml version="1.0" encoding="UTF-8"?>
<svg id="Warstwa_1" data-name="Warstwa 1" xmlns="http://www.w3.org/2000/svg" viewBox="0 0 724.91 724.91">
  <defs>
    <style>
      .cls-1 {
        fill: #fff;
      }

      .cls-1, .cls-2 {
        fill-rule: evenodd;
      }

      .cls-2 {
        fill: #1d1d1b;
      }
    </style>
  </defs>
  <path class="cls-2" d="M362.46,0c200.18,0,362.46,162.28,362.46,362.46s-162.28,362.46-362.46,362.46S0,562.64,0,362.46,162.28,0,362.46,0"/>
  <path class="cls-1" d="M207.12,376.5c-1.04.82-3,1.39-4.27,2.03-9.02,4.61-15.47,19.03-16.79,28.06-2.68,18.35,1.44,37.87,10.46,52.47,2.01,3.26,6.14,7.69,8.96,10.3,4.66,4.3,10.09,7.21,16.08,9.82,2.71,1.18,2,.49,3.09,3.23,1.2,3.02,2.32,6.37,3.49,9.45,5.46,14.38,13.04,24.41,22.04,35.75,9.26,11.67,24.6,25.04,36.14,34.59,19.41,16.06,43.25,31.86,71.02,31.85,23.06-.01,38.55-9.38,55.41-21.26,4.87-3.44,10.55-7.41,14.89-11l20.59-17.94c11.29-10.99,20.87-21.67,28.83-35.59,7.15-12.49,6.79-16.07,10.56-27.66.7-2.17,1.7-1.8,4.03-2.28,1.72-.36,3.41-1.12,4.89-1.76,17.74-7.66,26.7-29.1,29.7-47.39,1.13-6.88.63-17.46-.15-24.55-1.06-9.63-4.46-21.07-11.78-26.78-2.13-1.67-6.88-4.12-7.02-5.77,1.02.23,1.8.64,2.89.87,5.45,1.17,20.61,3.27,25.06,3,9.99-.61,18.52-1.9,27.07-5.18,15.28-5.86,26.69-17.18,33.57-30.54,3.64-7.08,7.18-14.56,8.48-23.39.65-4.42-1.52-11.11-6.48-8.02-1.75,1.09-2.72,2.31-4.67,3.45-12.61,7.37-30.99,7.14-44.1-1.73-3.8-2.57-5.91-4.81-8.63-7.64-10.88-11.31-14.91-27.59-16.63-47.45-1.64-18.89-3.65-38.31-8.58-55.55-9.69-33.84-29.65-58.15-58.08-70.45-16.46-7.12-36.5-8.39-55.12-3.79-30.05,7.41-52.7,30.32-61.64,58.45-.71,2.23-1.08,1.85-5.85,2.34-17,1.75-36.99,6.77-50.95,13.42-21.32,10.16-38.98,24.21-52.28,43.74-25.05,36.77-27.24,74.35-25.47,117.84.18,4.46,1.39,11.25,1.22,15.06"/>
  <path class="cls-2" d="M356.44,249.61c-5.12-3.75-8.68-18.35-18.48-21.54,1.54,2.99,5.92,9.35,7.36,20.54-1.2-.53-5.57-4.87-7.14-6.16-5.04-4.16-9.82-7.82-16.01-10.47-1.78-.76-8.33-3.45-9.97-3.62,2.28,2.22,16.13,12.89,16.23,20.12-1.53-.34-3.3-1.38-4.72-2.08-1.65-.82-3.23-1.42-4.88-2.05-7.18-2.72-14.45-4.68-22.28-5.42-2.53-.24-11.06-.71-12.86.3,3.96.51,23.13,4.45,25.67,10.08-22.27-.15-41.83,9.37-54.29,25.2-3.86,4.91-7.39,11.49-9.41,17.52.64-1.69,9.53-10.11,12.48-10.06-.19,1.29-4.6,7.21-5.65,8.93-3.36,5.5-15.47,22.09-16.09,27.51,1.02-1.92,7.3-10.24,11.27-9.86-.43,1.68-8.82,17.98-10.19,21.51-3.34,8.61-3.46,18.04-4.24,27.95-1.71,21.79-3.39,48.57-2.07,70.56l2.34,24.45c.82,5.1,1.28,10.4,2.45,15.37,3.2,13.62,8.72,26.08,16.13,37.13,2.48,3.69,5.19,6.65,7.79,9.97.61.78,1.34,1.74,1.89,2.33.96,1.01,1.35,1.28,2.19,2.33l4.33,4.69c3.31,3.3,9.84,10.48,13.27,13.22l4.74,4.28c6.38,5.52,12.99,10.68,19.72,15.8,24.34,18.53,53.35,27.04,82.88,12.15,12.26-6.18,28.48-18.45,39.17-28.25l9.98-9.28c3.37-3.05,6.35-6.51,9.56-9.71,8.15-8.09,15.34-17.12,20.56-27.61,7.44-14.96,7.83-32.08,10.34-47.5,2.01-12.38,3.01-44.52,2.98-56.71-.03-11.91-.93-35.84-2.01-47.51-.97-10.45-6.16-18.05-9.97-27.04l-4.09-8.26c4.03.58,10.13,9.29,11.6,11.14-1.36-4.88-7.84-14.92-10.71-19.24-1.71-2.57-11.48-17.19-11.69-18.58,5.27,1.79,8.65,5.95,12.48,9.71-.23-3.24-7.6-13.85-9.65-16.59-3.12-4.16-9.48-10.33-13.56-13.23-18.61-13.22-38.82-11.73-40.1-12.48,1.91-3.46,14.46-7.77,19.22-8.67,2.73-.52,5.57-.61,8.24-1.12-12.08-2.99-29.28,1.57-40.64,6.63-1.54.68-3.63,2.09-5.05,2.31.54-5.1,12.7-18.01,15.86-19.51-14.43-1-28.64,16.88-32.96,20.02-.27-4.65,5.04-17.47,8.03-20.93-2.25.62-4.36,2.77-5.91,4.09-6.93,5.9-9.08,12.69-14.14,17.61M227.35,461.85c0-.06-.01-.12-.02-.18-.53-4.78-2.13-15.5-2.47-18.65-.82-6.95-2.01-14.43-2.21-21.54-2.95,2.44-3.15,9.46-2.91,14.03.25,4.75,3.69,8.88,1.41,12.19-.84,1.23-1.02,1.35-2.07.45-2.65-2.28-4.77-7.42-5.7-10.77-.91-3.28-1.06-8.3-.32-11.92.83-4.1,1.31-4.66,3.14-7.42-2.78-6.17-1.79-9.63-8.11-13.92-1.21-.82-1.29-1.23-.71-2.39,1.6-3.18,6.17-1.62,8.52.32,3.95,3.25,4.66,7.55,5.68,8.72,1.25-2.22-1.04-17.34-6.26-19.59-2.25-.97-5.28-.42-7.13.82-5.87,3.94-8.33,18.31-7.75,27.85.24,3.9,1.65,11.19,2.73,15.08,1.28,4.6,2.73,8.91,4.8,12.96,2.96,5.79,9.42,15.86,18.01,15.9,1.93,0,1.56-.05,1.36-1.93ZM486.31,462.31c7.8-.03,10.42-2.62,15.97-9.21,11.08-13.17,17.06-47.21,7.16-61.62-1.68-2.44-3.64-5.14-7.91-4.96-4.64.19-5.96,2.13-7.67,5.5-1.49,2.94-2.57,7.39-3.37,12.34-1.64,10.21-5.08,45.53-5.27,57.01-.02,1.16-.14.96,1.09.95ZM411.95,475.11c-4.09.47-8.63,1.87-12.98,2.6-27.13,4.56-60.04,4.81-87.16.32-2.16-.36-4.33-.86-6.46-1.35-1.89-.44-4.7-1.33-6.38-1.5.74,5.96,3.43,8.84,7.1,12.51,12.36,12.35,85.43,12.6,98.71-.03,2.98-2.83,6.35-6.45,7.17-12.54ZM325.91,520.98c1.43,2.41,9.03,6.71,12.29,8.01,15.41,6.14,36.08,3.07,47.2-8.01-7.25-4.76-12.7-6.57-21.73-6.74-4.27-.08-5.99,1.87-7.84,1.92-1.91.05-3.08-1.76-8.12-1.89-4.19-.11-9.24.95-13.3,2.14-2.43.71-6.78,2.63-8.5,4.57ZM279.18,472.17c1.16-.75,2.06-2.12,3.24-2.41l5.22,13.17c7.84,18.14,22.17,40.18,39.41,50.29,8.41,4.94,16.53,7.69,28.19,7.62,12.62-.08,19.09-2.2,28.24-7.57,4.37-2.57,11.65-8.49,14.79-12,5.12-5.73,7.52-8.31,11.95-14.84,6.51-9.6,15.14-25.28,18.12-36.41,1.26.5,2.22,1.84,3.52,2.47,1.14.55,1.26.3,1.73-.89,1.47-3.75-2.29-8.06-4.19-9.43-1.61-1.17-8.38-5.73-10.9-3.24-.66.65-.72.99-.18,1.7.75.99,3.18,2.28,3.73,4.42-2.7.08-5.3.52-7.98,1.02-13.75,2.56-34.02-1.46-43.76.16-4.67.78-11.06,3.02-15.39,3.07-3.69.05-10.81-2.55-15.24-3.23-7.33-1.13-45.53,3.53-50.54-2.58,1.13-1.43,6.2-3.15,2.79-5.04-2.05-1.13-6.72.43-8.43,1.34-3.76,2-7.34,6.93-6.75,10.71.31,1.98.76,2.74,2.41,1.66ZM391.55,381.13c2.4-.89,4.06-3.4,12.06-5.94,11.23-3.57,26.47-2.07,36.4,4.31,1.55.99,4.49,3.42,5.28,4.27-3.25-13.84-23.77-26.26-42.73-14.43-3.69,2.3-9.9,7.2-11.01,11.8ZM403.25,386.25c-.95,3.95.42,7.97,3.76,11.02,3.61,3.32,9.87,4.26,15.04,2.72,5.74-1.71,10.87-7.5,9.83-15.48,3.55-.06,13.07,9,14.83,10.69,2.57,2.45,4.03,4.16,9.36,3.57,3.36-.37,6.4-2.21,8.57-4.81-1.11.32-5.16-1.7-5.09-2.58.6-1.05,7.4-5.55,6.39-14.04-3.29,2.03-8.88,4.56-14.08,4.6-2.44-3.1-4.34-15.36-20.02-21.84-11.49-4.75-24.26-2.91-33.31,3.4-4.86,3.38-11.47,10.12-14.65,18.18-1.24,3.15-4.06,13.35-.58,15.26.88.48,2.61-.8,4.03-2.05,1.72-1.51,2.87-2.62,4.85-3.91,3.52-2.31,8.42-4.78,11.08-4.72ZM264.86,383.74c1.08-.38,1.99-2.09,4.93-3.89,6.67-4.1,12.41-5.82,20.7-6.5,5.2-.42,11.23.36,15.84,1.78,8.33,2.57,9.39,4.86,12.27,6.01-.53-2.09-3.33-5.78-4.47-6.88-11.07-10.65-26.78-13.22-39.84-3.77-3.31,2.39-8.49,7.72-9.43,13.25ZM258.31,381.9c-2.26.04-8.44-2.03-10.85-2.98-1.39-.55-1.75-1.23-3.28-1.64-.41,4.87,1.56,9.47,4.99,12.56.22.2.37.32.63.57.73.72.19-.16.75.89-.76.3-4.61,2.11-5.11,2.66,2.14,2.24,4.85,4.29,8.09,4.74,5.3.74,6.98-.68,9.61-3.24,4.33-4.22,9.41-8.86,14.99-11.06-.18,8.34,4.26,15.82,13.28,16.23,11.11.5,16.76-5.85,15.46-14.44,8.62.41,17.95,11.58,19.83,10.82,4.77-1.92-.6-16.3-2.41-19.53-3.43-6.14-8.48-11.14-12.46-13.87-9.22-6.31-21.44-8.38-33.29-3.62-7.19,2.88-13.48,8.53-16.76,14.86-1.02,1.98-2.3,5.39-3.46,7.06ZM249.21,343.42c5.12-2.28,15.81-18.83,46.9-14.04,8.05,1.24,16.86,4.26,23.22,7.78,1.95,1.08,8.42,5.81,10.82,4.01,8.26-6.19-14.73-30.54-48-25.97-8.71,1.2-16.75,4.5-22.02,8.92l-4.1,3.74c-.78.68-2.73,3.2-3.48,4.34-2.12,3.21-4.84,6.55-3.34,11.21ZM463.6,343.47c4.3-6-7.74-17.03-10.22-19.07-5.71-4.69-12.88-7.93-22.04-9.26-18.52-2.69-38.41,5.38-46.19,15.42-1.95,2.51-4.83,7.44-1.67,10.77,1.84,1.93,3.7.24,5.32-.81,1.63-1.06,3.03-1.98,4.82-2.99,14.13-8.07,35.03-11.9,50.73-6.19,4.37,1.59,6.7,3.17,10.24,5.41,3.24,2.04,6.29,4.17,9.01,6.73ZM339.32,431.58c1.36-2.4,3.67-5.28,4.99-7.31,1.85-2.86,3.78-6.7,5.01-10.34,1.66-4.89,4.26-19.12,1.98-24.9-.43-1.08-.73-1.81-1.98-1.1-2.16,1.23-1.32,6.28-2.45,13.01-1.79,10.65-5,15.42-10.45,23.57-7.15,10.68-6.85,15.71,5.19,19.51,7.27,2.3,9.05,5.84,12.26,4.57,1.97-.78,3.98-5.46-3.24-9.99-2.49-1.56-6.89-3.1-10.39-4.26-2.17-.72-2.24-.43-.91-2.77ZM494.49,446.52c.95-.79,1.65-1.88,2.32-2.82,1.05-1.47,2.36-3.88,3.13-5.89,2.37-6.16,3.45-15.54-.38-21.72-1.4-2.27-2.02-1.79-.19-6.55,1.29-3.34,3.24-7.29,6.41-8.93,1.59-.94,2.03-.85.78-2.77-1.16-1.8-3.01-2.1-5.56-1.12-2.42.91-4.2,2.66-5.46,4.48-1.91,2.75-5.88,10.62-4.4,15.2.71,2.19,2.71,3.37,3.45,6.47.66,2.77.75,6.02.06,8.73-.75,2.97-.93,4.93-2.17,7.79-.77,1.77-1.43,4.08-1.17,6.21.31,2.43,1.31,2.47,3.17.92ZM362.08,441.26c1.67,2.45,4.05-.19,9.13-.59,2.88-.23,4.97.81,7.07,1.29,1.76.41,2.26.16,2.73-1.82.82-3.37-1.97-7.66-7.96-7.25-3.15.22-7.45,2.73-9.93,4.88-1.51,1.3-2.25,1.72-1.04,3.49ZM215.29,381.94c-12.6-.43-16.65,7.16-19.81,17.22-4.69,14.93-3.28,32.98,2.8,47.59,4.38,10.53,14.39,23.54,26.03,25.15,1.37.13,2.23-.03,3.57-1.16,1.79,6.01,5.59,16.63,8.01,22.08,4.97,11.19,13.45,22.55,21.34,31.63,1.16,1.33,2.49,3.04,3.62,4.21l23.22,22.23c6.94,5.89,18.1,14.85,25.83,19.63,12.41,7.67,27.52,14.76,45.63,15.17,28.24.65,44.52-12.04,64.2-26.72,2.85-2.13,5.74-4.49,8.35-6.69l8.28-7.09c.74-.65,1.07-1.17,1.81-1.78,4.49-3.69,17.34-16.46,20.82-21.03l6.69-8.65c1.28-1.65,5.35-7.09,6.2-8.86,3.93-8.21,6.23-11.95,8.89-21.51,1.09-3.93,1.85-8.58,3-12.34,3.43-.23,5.17.17,8.78-.86,5.32-1.52,8.03-3.84,11.95-7.31,8.38-7.43,13.59-20.55,16.07-32.39,2.37-11.32,2.05-23.75-1.16-34.54-2.11-7.09-6.06-13.26-12.14-16.75-4.05-2.32-8.75.43-8.17-3.27.69-4.81.43-9.54,1.01-13.74,8.93,3.4,21.15,5.79,31.7,6.34,21.3,1.11,40.8-7.28,52.72-23.39,3.59-4.85,12.27-21.26,11.75-26.34-2.09.43-9.42,4.82-20.09,5.67-8.44.67-16-.35-22.9-3.32-28.44-12.25-34.13-39.79-37.06-67.73-1.64-15.65-3.04-30.93-6.8-45.55-7.7-29.96-21.79-50.21-41.33-63.41-43.25-29.22-101.27-8.81-118.75,36.54-5.33,13.83-1.68,11.86-7.28,12.35-1.99.18-4.08.3-6.07.46-36.44,3.04-68.26,18.67-88.95,42-35.91,40.48-37.74,93.08-31.75,146.15Z"/>
</svg>