<?xml version="1.0" encoding="UTF-8"?>
<svg id="Warstwa_1" data-name="Warstwa 1" xmlns="http://www.w3.org/2000/svg" viewBox="0 0 724.91 724.91">
  <defs>
    <style>
      .cls-1 {
        fill: #fff;
      }

      .cls-1, .cls-2, .cls-3 {
        fill-rule: evenodd;
      }

      .cls-2 {
        fill: #1d1d1b;
      }

      .cls-3 {
        fill: #cc1818;
      }
    </style>
  </defs>
  <path class="cls-1" d="M205.82,376.5c-1.04.82-3,1.39-4.27,2.03-9.02,4.61-15.47,19.03-16.79,28.06-2.68,18.35,1.44,37.87,10.46,52.47,2.01,3.26,6.14,7.69,8.96,10.3,4.66,4.3,10.09,7.21,16.08,9.82,2.71,1.18,2,.49,3.09,3.23,1.2,3.02,2.32,6.37,3.49,9.45,5.46,14.38,13.04,24.41,22.04,35.75,9.26,11.67,24.6,25.04,36.14,34.59,19.41,16.06,43.25,31.86,71.02,31.85,23.06-.01,38.55-9.38,55.41-21.26,4.87-3.44,10.55-7.41,14.89-11l20.59-17.94c11.29-10.99,20.87-21.67,28.83-35.59,7.15-12.49,6.79-16.07,10.56-27.66.7-2.17,1.7-1.8,4.03-2.28,1.72-.36,3.41-1.12,4.89-1.76,17.74-7.66,26.7-29.1,29.7-47.39,1.13-6.88.63-17.46-.15-24.55-1.06-9.63-4.46-21.07-11.78-26.78-2.13-1.67-6.88-4.12-7.02-5.77,1.02.23,1.8.64,2.89.87,5.45,1.17,20.61,3.27,25.06,3,9.99-.61,18.52-1.9,27.07-5.18,15.28-5.86,26.69-17.18,33.57-30.54,3.64-7.08,7.18-14.56,8.48-23.39.65-4.42-1.52-11.11-6.48-8.02-1.75,1.09-2.72,2.31-4.67,3.45-12.61,7.37-30.99,7.14-44.1-1.73-3.8-2.57-5.91-4.81-8.63-7.64-10.88-11.31-14.91-27.59-16.63-47.45-1.64-18.89-3.65-38.31-8.58-55.55-9.69-33.84-29.65-58.15-58.08-70.45-16.46-7.12-36.5-8.39-55.12-3.79-30.05,7.41-52.7,30.32-61.64,58.45-.71,2.23-1.08,1.85-5.85,2.34-17,1.75-36.99,6.77-50.95,13.42-21.32,10.16-38.98,24.21-52.28,43.74-25.05,36.77-27.24,74.35-25.47,117.84.18,4.46,1.39,11.25,1.22,15.06"/>
  <path class="cls-3" d="M362.46,0c200.18,0,362.46,162.28,362.46,362.46s-162.28,362.46-362.46,362.46S0,562.64,0,362.46,162.28,0,362.46,0"/>
  <path class="cls-1" d="M580.8,432.66c1.79.8,2.76,3.03,6.36,2.52,7.97-1.15,9.54-9.03,10.25-16.48,2.01-21.18-.12-40.98-10.74-59.15-3.2-5.47-7.15-11.16-11.37-15.56-1.39-1.46-2.51-3.05-4.09-4.7l-8.84-9.02c-8.6-9.34-16.43-19.45-21.92-31.65-3.71-8.24-6.33-17.92-8.41-27.33-6.46-29.3-14.59-51.28-31.64-75.22-20.02-28.11-50.09-51.13-86.73-55.88-13.42-1.74-27.74-.79-40.81,2.2-2.13.49-5.19,1.6-6.97,1.84-1.6.22-10.81-3.41-13.37-4.07-28.4-7.31-61.51,2.34-85.51,16.41-13.58,7.97-23.7,16.85-33.81,28.56-7,8.11-12.68,16.14-18.18,26.33-4.19,7.77-8.07,15.72-11.27,24.45-3.2,8.71-5.43,18.34-7.63,27.8-6.9,29.67-6.71,25.68-19.34,52.1-3.61,7.56-8.48,15.9-12.82,22.9-3.07,4.95-10.85,17.31-14,21.42-2.39,3.12-4.92,7.11-7.03,10.83-7.03,12.39-12.33,23.83-14.78,38.82-1.48,9.08-2.23,23.71.69,32.24,1.23,3.58,5.52,7.71,10.88,6.52,4.93-1.09,6.42-9,7.25-10.37.8,1.44,1.42,4.87,2.01,6.84.66,2.17,1.37,4.29,2.08,6.39,3.12,9.22,11.42,30.3,12.81,38.45.96,5.65.48,9.42-1.46,14.48-1.52,3.95-8.13,11.59-.03,17.74,7.89,5.99,12.64-2.75,16.48-5.12-1.05,2.24-8.52,9.88-9.51,11.3-1.43,2.06-2.98,4.48-2.06,7.93.71,2.65,2.57,4.77,4.35,5.9,3.96,2.54,12.95.56,17.28-.7,8.51-2.48,11.21-5.72,13.92-6.49,1.7,9.72,5.19,20.55,10.05,27.43,3.23,4.58,5.25,6.36,8.85,9.89,7.09,6.94,13.54,10.89,23.44,13.74,5.59,1.61,10.96,2.5,13.95-2.18,3.17-4.95.51-10-2.05-13.81-1.83-2.72-5.55-8.46-6.27-12.32.89.38,2.88,2.4,4.93,3.7,5.69,3.62,9.99,5.52,16.54,8.06,4.64,1.8,19.98,6.29,25.34,7.74,5.14,1.39,9.03,2.1,12.58-1.45,3.18-3.18,3.08-7.82.56-11.97-6.78-11.18-5.73-11.97-7.79-25.15,3.02,1.69,6.31,4.74,12.4,7.65,4.47,2.13,8.61,4.31,13.61,6,11.28,3.82,22.5,4.35,35.24,4.26,13.31-.1,22.83-.96,34.25-5.25,6.4-2.41,14.41-6.16,19.95-9.91l5.86-3.96c-1.08,7.99-5.3,17.35-9.92,23.32-4.52,5.85-5.04,17.71,12.43,15.65,12.62-1.49,25.94-6.97,35.44-14.33,1.9-1.47,2.74-2.3,4.31-3.89.62-.62,3.2-3.41,4.13-3.81-.41,3.89-5.08,9.68-7.35,12.31-3.41,3.96-5.05,9.24-.83,13.74,4.34,4.63,8.48,2.98,14.64.95,6.85-2.26,13.59-6.42,18.82-10.76,6.73-5.58,8.94-7.58,14.21-15.36,10.42-15.38,10.86-24.93,12.17-27,4.47,4.04,8.88,7.57,14.45,10.66,3.98,2.21,15.7,6.17,19.76,4.14,2.55-1.27,4.75-3.59,5.51-7.08.87-3.97-1.63-6.9-3.21-9.18-1.36-1.96-8.42-13.89-8.62-16.06,1.94,1.88,5.78,5.51,10.3,3.8,3.29-1.24,6.63-4.22,6.53-8.61-.09-3.55-2.09-5.41-1.7-13.48.97-20.09,14.31-37.28,15.47-59.75"/>
  <path class="cls-2" d="M284.8,472.55c-3.24.95-9.7,7.64-9.13,11.29,2.66,0,9.56-9.14,9.13-11.29M405.68,505.08c-.35,3.22,3.21,11.43,6.66,12.27.99-2.36-4.58-11.86-6.66-12.27ZM330.06,512.14c-2.9,1.71-7.53,9.78-6.08,13.18,2.58-.65,7.03-11.2,6.08-13.18ZM272.81,450.02c-3.24.95-9.7,7.64-9.13,11.29,2.66,0,9.56-9.14,9.13-11.29ZM138.79,439.87c1.6-2.37,1.97-7.81,2.7-10.32,2.54-8.85,9.25-23.24,16.04-29.78-.64,4.44-2.31,8.59-2.85,14.84-1.52,17.78,1.87,29.36,7.68,45.85,3.05,8.66,7.21,17.52,9.06,26.91,1.59,8.06.84,15.69-2.68,23-.52,1.09-.94,1.92-1.51,2.89-1.33,2.28-.42,3.92,1.9,2.75,2.8-1.41,6.22-5.83,7.42-7.47,4.5-6.15,7.82-17.33,8.79-25.18.62-5,.57-10.93,1.29-15.69,1.58,3.69,3.69,13.76,4.37,17.97,2.03,12.51.42,26.64-6.51,36.97-1.73,2.57-3.15,4.27-4.73,6.4-.91,1.22-3.18,2.95-4.13,4.7-.9,1.66-.57,2.1,1.07,2.28,3.15.35,8.16-.68,10.41-1.39,5.92-1.85,10.72-4.94,15.39-8.62,2.99-2.34,6.24-5.7,8.24-9.02.68,1.55.06,4.11-.1,5.97-.17,2.22-.39,4.13-.28,6.37.62,12.25,5.1,25.67,13.21,34.15,4.03,4.21,5.55,5.89,10.9,9.6,3.9,2.71,9.07,4.95,13.87,6.34,2.5.72,4.98,1.84,4.98-.28,0-1.17-1.63-3.51-2.25-4.51-2.72-4.37-5.17-8.92-6.75-14.05-.97-3.17-1.97-7.96-2.09-11.59-.09-2.76.55-9.98,1.69-11.97.38.35,2.39,5.21,4.33,7.62,1.91,2.36,3.73,3.92,6.07,5.93,10.6,9.08,18.91,11.64,32.45,15.87l14.05,4.08c1.59.43,2.63.99,3.7.64,1.44-.47,1.01-1.19.46-2.33-1.93-3.99-7.75-9.61-8.53-30.17-.17-4.6.11-9.15-.05-13.62.96.22,2.47,1.64,3.38,2.34,1.18.9,2.27,1.61,3.41,2.44,6.99,5.06,14.11,9.21,22.17,12.98,20.9,9.78,59.22,8.61,79.75-2.14,7.9-4.14,14.59-8.46,21.42-13.72,1.54-1.18,5.37-4.53,6.81-5.14.57,13.16-3.21,31.41-11.15,42.08-1.01,1.35-2.13,2.06-2.33,3.86-.19,1.62-.01,1.54,1.47,1.66,5.68.44,15.29-2.25,19.56-3.8,9.22-3.34,16.8-8.25,23.23-14.55l9.29-9.45c2.44-2.87,5.04-5.48,7.12-8.69l1.45-1.89c.07,11.73-2.6,26.54-8.77,36.15-2.37,3.67-5.67,5.54-5.11,7.94.3,1.3.79,1.11,1.96.88,2.91-.58,8.21-2.72,9.72-3.4,16.16-7.1,29.08-24.34,34.29-41.27,1.21-3.93,2.1-8.01,2.63-12.25.42-3.27.75-10.7,2.75-12.53,3.64,8.39,4.93,13.99,12.37,20.07,2.83,2.31,6,4.58,9.68,6.41,2.65,1.32,17.65,7.39,12.03-.9-.83-1.23-1.61-2.23-2.41-3.45-1.54-2.37-2.86-4.9-4.17-7.54-5.84-11.72-9.73-24.51-9.36-38.05.15-5.53,1.67-15.58,4.66-19.05l1.25,6.16c.27,2.26.46,4.54.75,6.77.59,4.43,1.33,8.62,2.64,12.61,1.16,3.54,6.68,16.5,11.79,17.5,1.13.22.98-.11.81-1.15-.38-2.26-1.79-5.36-1.47-14.34.77-21.08,15.68-34.65,15.87-69.38.04-7.66-1.11-15.41-2.56-22.93-.44-2.29-1.31-5.16-1.56-7.19,2.82,1.83,8.87,11.79,10.42,15.31,4.37,9.93,3.57,9.81,5.65,18.37.29,1.19.25,1.93,1.84,1.28,1.53-.62,1.69-2.7,2.02-4.52,2.99-16.16,1.09-35.32-5.06-50.02-9.28-22.18-25.71-32.71-39.38-50.8-12.29-16.26-16.71-33.15-21.33-52.45-13.15-54.96-48.29-111.96-109.31-120.79-10.86-1.57-19.53-1.49-30.36.14-4.39.66-9.55,1.49-13.64,2.71-8.24,2.45-5.01,1.75-12.66-.97-18.9-6.71-37.34-5.48-56.35.18-39.98,11.9-69.82,40.4-86.04,78.2-8.25,19.22-10,31.24-14.79,51.09-3.67,15.22-17.54,42.22-25.88,56.11-17.11,28.49-41.67,56.14-40.25,91.26.11,2.78.39,8.7,1.67,11.84.62,1.52,1.27,2.59,2.45.84ZM263.29,335.29c7.78-11.45,39.34-72.87,43-76.09.96,1.78,2.53,14.46,2.33,17.18-.37,4.94-2.09,11.66-3.26,16.33-1.38,5.5-2.53,10.43-3.45,16.15-1.1,6.86-.63,11.32-1.02,17.76-3.73.57-8.2,1.3-11.68,2.05-5.85,1.27-15.27,4.23-20.65,6.6-6.92,3.05-5.73,3.49-8.45,4.9l3.18-4.9ZM414.38,325.77c-.2-2.32,9.43-26.36,10.94-30.49,4.32-16.96,3.94-20.96,5.71-35.85,4.68,3.5,18.89,54.41,24.32,67.6l4.11,8.9-9.87-4.01c-12.11-4.33-22.18-5.39-35.2-6.15ZM456.84,376.86c-1.03,2.75-5.32,6.42-6.95,7.69-17.23,13.48-43.17,12.25-55.41-5.74-8.99-13.21-3.44-12.64,7.25-15.06-1.51,2.61-1.56,8.27,4.63,13.13,8.2,6.43,19.15,7.48,28.38,1.89,5.94-3.6,7.73-8.46,8.08-10.71,4.92,1.59,9.6,3.69,13.55,7.23.72.64.84.59.47,1.56ZM241.61,434.9c-27.16-3.72-42.93-26.58-46.37-51.55-.92-6.67-.24-16.31,2.58-21.61,1.35-2.54,3.87-5.01,5.68-6.63,5.25-4.67,11.76-5.47,17.89-1.72,7.36,4.51,5.32,5.72,8.21,16.08.69,2.47,2.07,7.23,2.35,9.67-3.37-.9-4.5-1.96-8.81-1.94-10.3.04-14.54,8.89-9.35,18.06,1.61,2.84,7.22,10.39,10.52,10.45,2.94.05,4.7-3.11,3.11-5.93-1.47-2.6-13.78-13.99-4.54-14.69,3.69-.28,8.48,3.35,10.35,5.36,1.27,1.36,1.4.94,1.95,3.33,1.37,5.94,2.07,16.1,3.28,23.07,1.02,5.91,2.14,12.05,3.15,18.05ZM494.01,379.47c.19-2.32,3.37-13.32,4.22-16.25,1.11-3.81.45-5.04,2.98-7.28,4.49-3.97,8.7-6.02,15.21-4.51,7.24,1.68,11.79,9.71,13.73,17.03,4.27,16.07-3.34,34.31-12.22,46.66-1.82,2.54-7.79,9.37-9.9,10.42-1.77-1.34-6.18-7.76-11.26-4.93-1.75.97-2.72,3.23-2.59,5.99.14,3.01,1.3,3.66,2.6,5.55-.86.89-9.9,2.6-11.83,2.88.17-2.41,1.08-5.31,1.48-7.82.42-2.59.89-5.14,1.32-7.73l3.18-24c.4-3.55.69-4.52,3.01-6.11,2.71-1.86,9.54-6.58,12.06-2.6.99,6.01-8.6,10.98-7.99,15.5.33,2.41,2.91,4.96,6.9,1.6,1.94-1.64,4.1-3.73,5.59-6.11,6.73-10.77,3.69-20.18-7.16-20.72-3.87-.19-6.32,1.53-9.34,2.43ZM371.85,505.83c-1.52,2.86-1.26,11.8,1.63,13.86,1.79-1.83.14-12.71-1.63-13.86ZM341.12,427.98c-.97.99-9.19,2.14-10.58,2.38-11.49,2-29.56,6.01-33.83,17.69-.98,2.69-1.4,12.99.44,15.21,1.62-1.1,11.53-9.05,17.23-6.69-.21,1.13-1.11,1.83-1.86,2.5,3.14,1.43,13.04-3.19,14.48-4.02.14.49.05,1.08-.36,1.82,12.57.57,16.44-5.63,18.46-7.47.96,1.83-.15,4.82-1.67,7.4,14.37,1.26,16.07-5.73,20.05-10.84,4.19,6.57,8.1,11.04,16.61,10.94-.86-4.42.15-5.83,1.7-6.89,1.79.96,7.66,8.15,17.62,6.72-.66-.94-.94-1.83-.4-2.61,3.6,2.18,8,5.96,14.09,5.25-1.4-1.02-2.11-1.54-2.51-3.39,5.6.8,13.65,4.56,18,7.96,2.96-4.24,1.61-16.25-1.12-19.74-8.16-10.43-29.87-14.23-42.2-15.78,1.91-1.54,7.03-2.84,5.17-11-.48-2.12-1.91-4.5-2.91-5.59-1.66-1.83-3.99-2.55-5.36-.41-3.04,4.9,10.58,11.91-19.07,12.24-3.27.04-20.52.01-19.8-5.43.29-2.19,2.39-4.41.59-6.66-3.46-4.36-7.45,2.54-8.21,5.49-.68,2.61-.37,4.85.82,6.88,1.25,2.15,2.85,2.82,4.63,4.06ZM395.08,496.43c-.64,3.18,2.17,11.67,5.53,12.82,1.19-2.26-3.5-12.22-5.53-12.82ZM433.25,478.06c-.16,3.24,3.86,11.22,7.36,11.86.85-2.42-5.26-11.57-7.36-11.86ZM277.73,461.77c-3.24.95-9.7,7.64-9.13,11.29,2.66,0,9.56-9.14,9.13-11.29ZM404.82,488.28c-.57,3.19,2.43,11.62,5.81,12.69,1.14-2.29-3.77-12.14-5.81-12.69ZM343.7,517.17c-2.53,2.22-5.58,11.01-3.52,14.08,2.42-1.12,4.83-12.31,3.52-14.08ZM457.57,452.31c-.16,3.24,3.86,11.22,7.36,11.86.85-2.42-5.26-11.57-7.36-11.86ZM340.78,500.92c.7,3.16-1.93,11.71-5.26,12.93-1.24-2.24,3.25-12.29,5.26-12.93ZM310.39,498c-3.15,1.21-9.05,8.4-8.19,11.99,2.65-.21,8.79-9.88,8.19-11.99ZM362.78,520.09c-1.93,2.76-2.8,12.02-.08,14.52,2.08-1.66,1.76-13.11.08-14.52ZM449.9,464.06c-.16,3.24,3.86,11.22,7.36,11.86.85-2.42-5.26-11.57-7.36-11.86ZM395.17,512.51c-.35,3.22,3.21,11.43,6.66,12.27.99-2.36-4.58-11.86-6.66-12.27ZM382.32,519.27c-.99,3.09.86,11.84,4.07,13.35,1.44-2.12-2.12-12.54-4.07-13.35ZM415.28,499.3c-.16,3.24,3.86,11.22,7.36,11.86.85-2.42-5.26-11.57-7.36-11.86ZM440.97,469.57c-.16,3.24,3.86,11.22,7.36,11.86.85-2.42-5.26-11.57-7.36-11.86ZM310.91,355.57c-13.49.7-42.38,6.92-50.43,16.13-2.69,3.08,1.11,9.15,2.86,11.48,6.53,8.71,20.4,16.29,31.74,18.31,18.01,3.21,36.49-5.3,45.63-19.84,1.88-2.99,4.07-7.36,4.89-11.54,1.17-5.97-1.87-8.68-5.58-10.61-6.91-3.58-20.44-4.39-29.09-3.94ZM284.34,368.51c.55,2.03,1.68,4.28,3.14,6.34,6.89,9.75,28.47,11.48,36.49-3.19,1.64-2.99,1.85-5.32,1.43-7.63,2.21.1,9.52,1.78,11.37,3.89.61.7.34,1.29.12,2.14-3.38,12.98-17.6,22.12-30.3,23.42-8.54.87-16.2-1.17-22.77-4.44-4.37-2.18-12.45-7.8-14.42-12.22-.35-.79-.27-.68.42-1.22,3.2-2.55,10.68-6.6,14.51-7.1ZM354.15,504.72c1.36,2.94.61,11.85-2.39,13.75-1.69-1.92.56-12.7,2.39-13.75ZM303,488.38c-3.15,1.21-9.05,8.4-8.19,11.99,2.65-.21,8.79-9.88,8.19-11.99ZM386.82,502.61c-1.52,2.86-1.26,11.8,1.63,13.86,1.79-1.83.14-12.71-1.63-13.86ZM340.6,492.77c1.67,7.62,29.96,6.87,37.38,5.1,3.65-.87,8.22-2.43,7.57-7.09-.38-2.74-2.1-3.06-4.11-2.63-5.45,1.15-7.16,2.28-13.5,2.68-6.8.43-14.81.19-19.51-1.25-1.34-.41-4.24-1.86-5.49-1.7-1.76.23-2.86,2.55-2.35,4.89ZM293.31,481.66c-3.24.95-9.7,7.64-9.13,11.29,2.66,0,9.56-9.14,9.13-11.29ZM424.81,488.22c-.16,3.24,3.86,11.22,7.36,11.86.85-2.42-5.26-11.57-7.36-11.86ZM320.15,506.13c-3.14,1.23-8.99,8.46-8.1,12.05,2.65-.23,8.72-9.94,8.1-12.05ZM315.81,465.54c.71,4.28,15.3,10.17,19.64,11.55,14.5,4.62,41.41,4.69,55.76-.14,4.02-1.35,19.16-7.59,18.95-12.25-.11-2.39-1.65-3.97-4.32-3.69-2.84.29-10.11,11.44-43.33,11.58-11.99.05-31.52-2.74-40.55-10.7-.76-.67-1.61-1.04-3.07-.84-2.05.28-3.47,2.08-3.07,4.49ZM332.29,494.61c.45,3.21-2.84,11.52-6.26,12.47-1.06-2.33,4.2-12,6.26-12.47ZM322.98,487.79c.49,3.2-2.71,11.56-6.12,12.55-1.09-2.32,4.06-12.05,6.12-12.55ZM272.8,477.1c-1.7.35-4.39,2.16-6.55,4.34-1.88-3.03-3.56-6.04-5.06-9.03,2.61-2.59,5.05-5.94,4.9-7.19-1.66.34-4.24,2.06-6.37,4.16-1.35-2.9-2.54-5.79-3.6-8.68,2.74-2.62,5.41-6.22,5.25-7.52-1.67.35-4.28,2.09-6.41,4.2-1.09-3.25-2.01-6.5-2.83-9.75,2.52-2.55,4.81-5.73,4.66-6.95-1.44.3-3.58,1.64-5.51,3.36-4.39-19.58-5.01-39.43-10.2-61.74-.73-3.15-4.35-16.63-4.51-18.36,1.39-1.42,6.93-5.6,10.31-9.04.97-.99,8.45-9.34,9.36-9.74-.66,2.7-.55,3.79,2.9,4.11,13.01-1.25,24.86-3.92,38.21-3.78,10.14.11,19.51,2.01,29.38,3.24,7.79.98,19.53.14,19.33-9.66-.07-3.31-1.79-5.02-3.33-6.59-6.9-7.02-21.78-6.56-33.29-6.62.09-7.95,8.11-20.97,12.09-28.06,5.58-9.97,9.81-16.07,9.57-30.48-.1-6.28-1.4-11.63-2.86-17.25-1.75-6.72-2.21-10.76,2.45-14.56,5.79-4.72,16.68-4.79,24.24-2.2,8.76,3,5.53,4.78,10.12,2.01.97-.59,2.32-1.11,3.46-1.52,8.19-2.92,17.55-3,25.19.27,9.11,3.91,14.53,11.44,17.64,22.49,4.83,17.18-.2,35.7-3.69,52.69-1.08,5.26-1.98,11.4-3.43,16.43-.87.45-1.38.31-4.2.6-1.32.14-2.66.38-3.98.62-19.24,3.45-20.53,18.56-6.28,21.81,7.34,1.68,11.86-1.04,16.66-.84.61,1.37,2.38,6.24,2.41,7.53-8.68.64-21.45,1.84-25.9,7.02-5.2,6.06,2.32,18.52,5.57,22.97,9.76,13.37,30.96,19.69,46.78,15.32,10.12-2.79,24.44-10.49,29.36-19.83,2.87-5.45,4.05-6.68-.51-10.81-9.35-8.46-30.44-12.71-43.05-14.11-2.25-.25-5.41-.05-7.31-.4-1.28-.92-2.49-6.81-2.7-8.61,20.01-1.76,26.2-1.87,46.2,1.28,16.59,2.61,9.55.22,22.52,12.05,2.29,1.97,5.66,5.64,8.46,6.79-.04,2.2-1.45,7.22-1.96,9.66-1.97,9.44-3.54,18.82-5.04,28.35-2.1,13.39-3.15,25.67-6.29,38.52-.12.47-.23.95-.35,1.42-1.77-3.01-4.23-5.99-5.41-6.16-.12,2.35,1.97,7.19,4.46,9.92-.94,3.62-1.92,7.13-3.02,10.54-1.76-2.98-4.2-5.93-5.37-6.09-.11,2.26,1.82,6.84,4.18,9.61-1.3,3.68-2.77,7.25-4.5,10.69-1.77-3.26-4.58-6.8-5.87-6.97-.12,2.32,1.92,7.08,4.37,9.83-.06.11-.12.21-.18.32-1.42,2.53-3.1,5.13-4.8,7.57-2.13-2.83-5.02-5.6-6.24-5.61.14,2,2.1,5.62,4.42,8.13-.83,1.11-1.64,2.16-2.41,3.13-.38.64-1.03,1.54-1.83,2.57-2.15-3.02-5.37-6.19-6.67-6.21.15,2.11,2.31,6.01,4.79,8.52-.62.73-1.28,1.47-1.95,2.18-1.99,2.13-3.69,3.7-4.51,4.51-1.71-2.96-4.3-6.98-6.07-7.67-.37,3.19,1.93,7.14,3.34,10.33-1.16,1.06-5.94,5.67-7.1,6.66-1.76-2.49-4.59-6.12-6.18-6.98-.53,1.98,2.7,7.45,3.19,9.67-1.7,1.44-6.65,5.53-8.43,6.91-1.22-1.86-3.39-5.7-4.79-6.63-.66,2.09,1.61,6.12,1.98,8.76-1,.78-6.74,4.63-7.91,5.37-.86-1.6-3.52-6.02-5.03-7.56-.58,2.17,1.23,6.88,1.84,9.41-1.91,1.35-5.82,3.18-8.58,4.5-1.29-1.69-3.52-6.18-5.6-7.54-.15,1.9,1.11,6.51,1.72,9.2-2.98,1.54-13.94,4.67-19.11,5.32,0-2.66-1.02-8.31-2.58-11.01-.74,2.05-1.65,8.9-1.67,11.49-7.39.96-13.26.89-20.18.09-.2-2.73-.75-7.57-2.1-9.91-1.15,1.99-2.07,6.84-1.95,9.46-4.11-.76-6.97-1.34-10.64-2.43-2.47-.74-6.77-2.36-8.38-3.02-.28-2.12.39-6.12-.38-8.13-1.47,1.41-2.69,4.96-3.83,6.27-1.5-.77-3.48-1.78-5.15-2.7-1.21-.67-2.23-1.32-2.92-1.68.77-3.05,1.41-5.35,1.39-8.52-1.49,1.28-3.28,4.14-4.65,6.5-1.68-1.03-6.2-4.09-7.84-5.27.4-2.38,2.1-5.85,1.92-8.23-1.73,1.2-3.79,4.49-5.29,5.84-1.84-1.16-6.27-4.52-8.2-5.99l3.14-8.77c-2.27,1.16-5.25,4.56-6.71,5.91-.88-.74-2.22-1.86-3.59-3.11-1.22-1.12-2.47-2.24-3.1-2.94,1.7-3.32,3.55-4.91,4.4-8.82-3.32,2.16-4.95,3.51-7.13,5.9l-2.69-3.09c-.88-1.01-1.69-2.09-2.63-3.23-.34-.42-.69-.85-1.05-1.3,2.48-2.7,4.75-6.15,4.55-7.39-1.73.44-4.43,2.47-6.51,4.83-.65-.87-1.3-1.75-1.94-2.62-1.28-1.74-2.48-3.47-3.62-5.19,2.57-2.57,4.94-5.84,4.79-7.08ZM491.57,439.84c2.11,1.1,1.03,3.76,2.72,4.89,1.55,1.04,4.21.96,5.93.12,3.95-1.92,3.32-7.28,1.81-11.38-.75-2.05-1.92-3.07-3.21-4.39-1.74-1.79-2.22-3.87-.36-5.32,3.37-2.63,12.59,9.28,10.07,18.87-2.79,10.63-14.93,9.82-19.17,5.28-4.35-4.65-1.47-9.97,2.2-8.06Z"/>
</svg>