<?xml version="1.0" encoding="UTF-8"?>
<svg id="Warstwa_1" data-name="Warstwa 1" xmlns="http://www.w3.org/2000/svg" viewBox="0 0 724.91 724.91">
  <defs>
    <style>
      .cls-1 {
        fill: #fff;
      }

      .cls-1, .cls-2, .cls-3 {
        fill-rule: evenodd;
      }

      .cls-2 {
        fill: #1d1d1b;
      }

      .cls-3 {
        fill: #cc1818;
      }
    </style>
  </defs>
  <path class="cls-3" d="M362.46,0c200.18,0,362.46,162.28,362.46,362.46s-162.28,362.46-362.46,362.46S0,562.64,0,362.46,162.28,0,362.46,0"/>
  <path class="cls-1" d="M181.66,542.77c.7,7.91.2,12.36,2.33,19.94,4.66,16.58,17.37,31.02,35.15,31.73-.64,1.89-2.76,2.13-2.54,5.5.45,6.88,9.04,8.84,15.17,8.97,10.78.22,18.19-1.64,26.71-5.56,10.8-4.96,24.23-16.72,29.59-26.84.52-.98,2.15-4.61,2.84-5.08.75,5.05-1.96,14.85-3.93,18.72-1.19,2.33-3.54,4.58-3.53,7.91,0,3.75,1.87,6.01,4.25,7.19,5.5,2.73,13.34-1.31,17.27-3.78,5.11-3.21,8.43-6.28,11.7-11.09,10.1-14.88,11.44-38.54,7.79-56.88-1.32-6.64-3.47-12.18-4.83-18.33,2.97,1.34,11.65,8.67,20.35,12.5,16.99,7.48,38.49,7.73,56.04,1.67,8.89-3.07,16.9-7.32,22.06-11.08-2.22,13.2-6.06,23.5-2.97,37.99,1.36,6.38,2.81,10.57,5.42,15.97,3.91,8.1,12.84,18.74,21.48,21.61,6.34,2.11,13.45.45,13.35-6.61-.05-3.41-1.73-5.19-3.06-7.57-4.03-7.22-6.88-17.5-6.32-26,3.6,12.75,5.06,18.52,13.13,29.2.77,1.02,1.52,1.95,2.44,2.84,3.67,3.55,2.76,3.47,8.52,7.61,13.66,9.81,34.02,13.98,51.33,11.65,5.98-.8,12.29-2.55,13.79-7.6,1.87-6.29-6.39-9.84-6.8-14.27,1.6.31,5.07,3.11,10.19,4.53,15.86,4.4,31.92-2.12,28.47-12.07-1.97-5.68-10.67-2.49-17.12-12.63-4.28-6.72-5.51-14.84-5.35-24.39.97.52,4.47,6.36,14.08,9.54,6.14,2.03,13.77,3.21,20.17.91,9.39-3.36,7.84-11.4,4.51-13.91-5.03-3.79-8.1-6.04-11.68-11.96-7.15-11.84-9.13-22.36-8.03-38.75,1.71-25.39,3.99-16.14,13.68-33.92,12.93-23.72,10.17-52.69.77-77.76-9.73-25.97-21.28-38.23-33.97-60.84-10.18-18.14-17.08-49.36-23.9-70.63-8.92-27.81-14.68-41.39-30.15-64.64-5.06-7.61-15.05-18.88-22.27-25-9.72-8.23-16.75-13.19-29.1-18.43-13.42-5.69-34.87-9.47-50.5-5.27-7.4,1.99-5.18,3.38-8.53,1.17-4.44-2.92-10.42-5.82-16.06-7.85-26.98-9.69-54.79-5.26-76.1,8.01-4.91,3.06-9.67,6.42-13.83,9.8-8.56,6.96-16.75,14.85-23.83,23.44-10.1,12.25-20.51,28.66-27.86,43.3-12.68,25.25-18.27,41.14-26.67,68.14-3.81,12.25-7.8,23.41-13.1,34.45-5.12,10.67-11.26,20.14-16.43,30.83-5.14,10.62-10.46,21.37-13.48,33.77-4.8,19.71-4.98,41.54,3.68,60.41,4.31,9.39,6.57,7.55,7.29,16.54,1.83,22.7,7.31,40.03-.76,63.39-10.22,29.59-26.77,25.36-23.26,35.22,3.61,10.13,25.99,5.32,35.35-.89,1.05-.7,2.62-1.51,3.58-2.26.97-.76,2.36-2.21,3.44-2.57"/>
  <path class="cls-2" d="M293.98,276.14c11.79-1.93,24.19-1.5,35.52,1.51,7.19,1.91,17.37,4.86,14.97,13.32-2.23,7.87-6.84,4.55-12.01,2.62-11.72-4.37-30.68-7.73-42.41-4.23-5.71,1.71-6.91,5.44-9.62,10.11-9.95,17.18-18.59,27.67-32.19,41.54-1.45,3.13,3.89,34.62,4.59,39.42,3.69,25.25,4.38,39.28,15.6,63.1,1.96,4.15,5.21,9,7.71,12.03,7.19,8.71,16.07,16.89,24.73,24.19,1.74,1.47,3.77,3.06,5.43,4.58l21.68,17.81c6.34,4.96,15.13,11.58,24.77,14.42,9.83,2.89,25.44,2.49,35.39-.13,10.47-2.75,18.88-8.43,25.19-13.99,5.21-4.67,10.29-9.28,15.43-14.04,3.89-3.32,10.46-9.95,12.7-11.76,1.01-.81,1.61-1.58,2.56-2.44l5.02-4.71c2.43-2.22,7.42-7.49,9.55-10.19,4.89-6.19,7.88-10.47,10.91-18.56,6.42-17.16,8.65-30.02,11.37-47.56l5.34-33.91c1.24-8.42,3.69-28.8.77-36.42-.54-1.42-5.01-8.46-6.99-12.74-6.34-13.72-10.41-29.54-14.64-44.31-6.26-21.86-16.92-48.48-36.61-61.81-7.89-5.34-20.45-8.36-31.68-5.54-4.54,1.14-2.14,1.34-6.25-1.57-7.18-5.09-14.63-6.42-23.68-4.99-34.34,5.4-50.75,38.6-64.75,67.68-1.95,4.04-7,12.7-8.41,16.59M488.12,396.47l1.65-.28c.28-4.03.28-8.34,2.59-10.71,3.45-3.39,7.62.57,9.93,2.7,2.63-6.98,4.84-10.04,6.65-19.2.7-3.56,2.44-15.84,1.94-19.18-2.44-1.17-12.04-8.44-13.47-9.39-1.32,9.43-4.38,30.92-6.47,41.97-.78,4.12-2.55,10.11-2.82,14.09ZM495.41,389.65c-1.63,1.51.99,4.7,1.52,6.93.65,2.73.07,6.17-1.35,7.96-2.87,3.62-6.13,2.24-7.44,2.63-1.36.4-.22,4.32,3.94,4.83,2.81.34,5.64-1.57,6.78-2.79,4.08-4.35,4.47-13.87-.12-18.62-1.34-1.38-2.29-1.91-3.33-.95ZM561.43,453.1c12.65-19.75,4.3-55.08-6.51-73.93-1.29-2.25-10.34-16.9-12.23-18.43.86,2.98,2.65,6.77,3.86,9.84,3.87,9.76,7.59,21.88,10.28,31.98,2.04,7.65,3.4,15.4,4.26,23.76.45,4.38.63,8.74.82,13.2.21,4.97-.35,8.87-.48,13.59ZM169.57,434.16c-2.27-16.16,2.46-36.23,6.6-51.83,3.57-13.44,8.32-25.82,13.22-38.78-8.46,12.78-15.89,24.82-20.74,39.6-4.33,13.21-6.79,31.48-1.9,45.34.56,1.6,1.58,4.54,2.82,5.66ZM226.53,357.31c.26,7.05,8.16,27.63,10.52,28.66,1.86.81,8.75-4.67,8.83,10.54l1.9,1.07c-1.83-6.82-6.79-44.77-8.78-48.65-1.09,1.27-9.87,7.56-12.47,8.39ZM248.09,407.93c-3.38-.89-4.51.82-7.45-2.21-5.27-5.42,1.03-13.12.12-15.11-1.33-2.88-4.94,1.82-5.51,2.97-4.07,8.21.27,19.11,7.65,19.08,3-.01,5.28-1.77,5.2-4.72ZM412.11,428.82c-1.68-.2-7.64,1.66-9.65,2.14-23.02,5.49-40.37,5.39-63.38.02-2.06-.48-8.2-2.25-9.92-2.12-.2,2.86,4.88,7.61,6.19,8.65,2.67,2.13,5.93,3.92,9.55,5.45,14.96,6.32,36.1,6.26,51.07-.13,6.27-2.68,14.56-7.82,16.14-14.01ZM428.11,419.47c-2.22-.28-6.01.69-7.81.97-13.3,2.05-28-2.31-40.97.75-9.71,2.29-7.75,2.65-17.49.11-3.25-.85-6.36-1.29-9.97-1.2-13.55.32-19.58,1.94-33.51-.11-1.85-.27-5.11-1.24-6.11.32-.99,1.54.51,2.78,1.82,4.57l11.99,17.2c9.28,12.8,17.19,21.03,34.84,23.52,12.06,1.7,25.95.25,36.33-5.66,12.1-6.88,18.68-19.27,27.21-31.17,1.47-2.05,5.02-6.09,5.03-8.17,0-.89-.57-1.01-1.35-1.11ZM399.58,325.12c3.8-1.25,17.42-16.69,46.62-7.92,2.03.61,4.67,1.62,6.66,1.99-.83-2.12-8.74-6.16-12.01-7.2-14.99-4.76-33.6-.27-41.27,13.14ZM415.69,325.27c-1.68,3.23-2.45,9.95,2.03,14.99,2.37,2.67,6.87,4.05,12.16,3.66,7.08-.52,11.76-5.74,12.59-12.23.4-3.13-.28-5.45-1.26-7.08,2.08.78,5.52,3.11,7.16,4.32,2.34,1.72,4.72,4.27,6.8,5.92-.66,1.53-6.31,8.48-2.99,10.63,3.26,1.43,7.34-4.51,8.75-6.69,2.96.76,8.59,1.87,11.83-2.01-2.1-1.39-2.83-2.29-3.08-3.65,2.03-1.82,8.14-4.87,7.87-12.03-3.48.97-7.74,3.87-13.57,2.53.8-2.43,5.23-6.9,4.76-10.35-3.18,1.13-6.64,2.47-8.34,1.97-.78-.23-2.06-1.86-2.74-2.57-3.45-3.58-11.66-8.03-17.85-9.42-18.55-4.15-36.06,2.18-45.16,17.6-2.23,3.78-5.63,11.26-4.55,16.85.8,4.15,4.18,3.11,6.38,1.38,3.45-2.72,6.36-6.1,10.36-9.02,2.88-2.1,6.3-4.24,8.84-4.8ZM292.58,319.24c9.68-2.48,17.41-6.04,29.18-4.41,14.63,2.02,21.9,9.62,24.07,10.25-4.37-7.44-12.18-12.94-23.89-14.57-8.69-1.21-16.66.44-23.88,4.41-1.45.79-5.03,2.94-5.49,4.32ZM276.7,313.27c-.43,2.98,2.66,6.66,4.16,9.18.58.97.68.79.24,1.13-2.46,1.73-11.07-.91-12.77-1.93.07,8.01,5.87,9.96,7.4,11.47-.28,1.36-.95,2.51-3.09,3.34,1.1,2.16,4.61,3.04,6.91,2.94,1.69-.07,3.16-.55,4.98-.63,1.13,2.05,4.86,7.5,8.34,6.81.71-.14.96-.44,1.24-1.12,1.31-3.13-2.59-8.48-3.35-10.23,3.88-3.46,7.79-6.86,13.48-9.63-2.24,2.44-2.66,8.78.51,13.44,2.3,3.38,5.75,5.61,11.53,5.98,8.57.55,14.22-4.25,15-11.84.33-3.19-.73-5.9-1.59-6.86,4.64.31,15.47,10.14,18.96,13.53,2.03,1.96,5.43,3.03,6.57-.71,1.48-4.87-2.24-13.54-4.22-16.93-9.14-15.65-26.31-21.97-45.15-18-5.96,1.26-10.9,3.96-14.83,6.87-.97.72-2.36,1.7-2.97,2.31-.73.74-2.14,2.44-2.83,2.76-1.77.81-5.79-.16-8.52-1.88ZM431.04,275.14c-7.53.68-25.99,3.81-31.35,9.05-5.14,5.02-2.27,12.37,2.24,12.51,4.97.15,38.5-19.03,57.98-1.55,3.21,2.88,4.97,6.58,7.15,5.85,1.16-.39,2.93-2.42,2.68-3.94-.11-.68-1.8-3.91-2.24-4.76-3.26-6.18-6.12-10.93-12.85-14.13-6.39-3.04-15.79-3.73-23.61-3.03ZM392.69,303.51c-6.95,1.38-11.94,13.66-13,21.01-1.63,11.33.69,19.73,4.53,28.79,5.67,13.38,11.37,25.67-3.46,35.37-1.52.99-3.92,2.15-4.81,3.53-3.31,5.11,7.73,6.34,14.43-1.69,2.49-2.98,4.78-6.1,5.82-11.13,3.31-15.97-7.03-24.11-10.08-39.39-.47-2.35-.66-4.82-1.22-7.09-.68-2.82-.37-5.07.47-7.73,1.68-5.32,1.74-7.75,4.49-12.47,2.2-3.8,8.06-10.24,2.84-9.2ZM349.31,372.74c-4,.98-8.85,9.47-3.75,17.84.91,1.5,1.4,1.71,2.43,2.85,1.07,1.19,4.54,3.82,6.67,4.01,2.69.24,4.97-2.99,2.9-5.52-1.46-1.79-3.97-2.96-5.51-5.05-1.91-2.59-2.48-4.52-1.02-7.88.92-2.12,2.45-7.28-1.73-6.25ZM425.65,409.95c.13,1.33,1.12,2.2,2.44,3.19,5.94,4.48,6.11,13.09,9.39,8.36,2.06-2.98-.89-7.46-2.56-9.35-1.39-1.58-4.1-4.17-7.33-3.68-1.04.16-2.06.28-1.94,1.48ZM312.47,408.68c-4.95,1.19-9.47,7.23-8.9,11.39.24,1.76,1.65,4.33,3.33,2.65,1.04-1.04,1-4.48,5.17-8.46.89-.75,5.83-4.18,3.45-5.55-.76-.44-2.37-.19-3.06-.02ZM358.87,383.63c-3.07.65-2.19,4.39-.29,5.9,9.71,7.72,8.1-1.12,6.37-3.04-1.12-1.24-3.27-3.45-6.08-2.86ZM147.66,547.5c4.05,1.19,10.17,0,13.71-.94,9.04-2.38,17.1-9.15,22.73-15.91,3.19-3.84,4.92-8.12,7.56-11.74-.09,2.27-1.82,7.95-2.35,10.85-2.08,11.36-1.74,25.03,2.19,35.45,2.65,7.03,6.71,12.07,10.92,15.77,2.28,2,4.94,3.76,8.28,5.07,1.82.72,5.96,1.99,8.9,2.43,2.26.34,2.39.28,1.38-2.05-1.63-3.75-3.49-6.25-4.87-10.51-1.55-4.8-1.82-11.21-1.79-16.58,1.68,1.7,8.31,15.9,9.72,18.92,7.74,16.68-1.64,19.47-1.26,21.46,1.76,2.81,9.3,3.09,13.17,2.89,20.39-1.05,37.66-14.41,48.11-31.24,7.48-12.04,7.07-20.71,8.33-23.21,1.59,1.76,3.22,9.15,3.66,12.05,1.45,9.35,1.04,19.51-1.92,28.46-.98,2.97-5.23,9.52-4.35,10.88,3.12,3.29,18.52-6.58,23.06-14.68,10.78-19.2,8.04-43.93,1.92-64.51-2.1-7.05-5.18-14.22-8.42-20.77-1-2.03-2.78-4.38-3.38-6.42,1.32.81,2.12,1.74,3.33,2.85,5.4,4.96,11.26,9.56,17.31,13.84l7.28,5.23c12.19,8.13,19.71,11.55,37.96,11.88,12.06.22,20.41-.66,31.19-6.14,17.89-9.1,27.43-20.6,34.88-27.28l-5.13,11.99c-8.92,22.25-14.99,47.42-.91,68.92,3.3,5.04,12.23,13.58,18.43,14.22,2.71.28,2.13-.34,1.21-2.19-1.52-3.1-4.71-9.08-6.06-15.07-3.89-17.22-1.57-34.6,6.48-50.34.97-1.89,3.57-6.4,4.65-7.51-.23,2.56-1.22,5.97-1.68,8.8-1.55,9.61-1.27,20.31.49,29.65,1.57,8.32,4.45,15.97,9.01,22.69,7.75,11.43,17.74,18.12,31.36,22.02,7.92,2.26,27.18,4.06,35.27.02,1.84-.92,1.71-1,.32-2.62-2-2.34-4.45-3.37-7.15-12.5-1.93-6.51-2.74-12.87-2.42-20.26.43.27,2.51,4.44,3,5.22,5.73,9.05,15.39,15.98,26.91,16.19,3.75.07,9.56-.94,11.75-3.45,1.42-1.62.43-1.45-1.04-1.93-4.64-1.51-8.24-3.5-10.93-6.37-12.54-13.41-9.51-31.16-8.13-48.37.84,1.03,2.15,3.78,3.06,5.07,15.4,21.78,38.32,16.84,36.26,12.39-.21-.46-5.22-3.62-6.11-4.45-17.9-16.93-18.29-43.49-14.24-67.06.71-4.13.68-4.96,2.97-7.62,1.64-1.9,3.07-3.95,4.6-5.97,8.49-11.24,12.69-25.17,12.84-40.72.24-24.14-10.23-48.14-20.2-65.06-5.29-8.99-11.07-17.37-16.38-26.16-5.69-9.42-10.33-18.13-13.94-28.87-10.62-31.54-17.11-65.65-32.93-94.97-14.23-26.38-36.45-52.71-66.07-62.08-11.17-3.54-24.8-6.12-37.48-3.65-2.8.55-5.59,1.4-8.02,2.56-4.69,2.25-2.23,2.68-6.75-.33-4.17-2.78-8.76-5.29-14.05-7.35-29.66-11.55-58.79-5.17-82.32,12.71l-8.75,7.09c-4.98,4.1-9.05,8.65-13.44,13.53-13.76,15.28-24.77,32.94-33.71,51.62-2.33,4.88-4.4,9.76-6.68,14.73-4.31,9.4-8.59,20.43-11.93,30.61-7.42,22.64-11.96,40.72-23.68,61.67-5.08,9.09-10.22,18.31-14.82,28-4.34,9.16-8.94,20.73-11.11,31.41-2.39,11.77-2.94,27.45.05,38.97,2.11,8.12,5.5,15.05,9.96,21.74,2.25,3.38,1.84,3.81,2.23,8.56,2.29,28.31,8.01,47.33-4.51,74.41-3.16,6.84-7.72,13.65-13.58,18.39l-4.38,3.14c-1.9,1.36-2.74,1.6.4,2.52Z"/>
</svg>