<?xml version="1.0" encoding="UTF-8"?>
<svg id="Warstwa_1" data-name="Warstwa 1" xmlns="http://www.w3.org/2000/svg" viewBox="0 0 724.91 724.91">
  <defs>
    <style>
      .cls-1 {
        fill: #fff;
      }

      .cls-1, .cls-2 {
        fill-rule: evenodd;
      }

      .cls-2 {
        fill: #1d1d1b;
      }
    </style>
  </defs>
  <path class="cls-2" d="M362.46,0c200.18,0,362.46,162.28,362.46,362.46s-162.28,362.46-362.46,362.46S0,562.64,0,362.46,162.28,0,362.46,0"/>
  <path class="cls-1" d="M212.59,339.16c-2.78-.82-6.07-3.07-10.83-2.44-10.27,1.35-16.13,10.34-19.51,20.24-4.94,14.5-4.2,32.55-.86,47.56,5.2,23.38,25.04,58.21,52.24,53.66,6.41,17.78,10.15,26.87,19.25,43.74,11.67,24.73,48.38,62.14,72.08,72.46,13.89,6.05,23.28,8.63,39.72,8.67,18.2.04,35.97-3.06,51.38-12.49,5.8-3.55,12.32-9.78,17.69-14.22,6.22-5.12,18.86-17.46,24.02-24.01,8.43-10.7,12.13-13.65,20.44-27.9,6.54-11.21,12.31-26.9,16.16-39.77.65-2.16,1.6-4.22,2.04-6.26,24.38.38,42.18-32.35,46.92-53.14,3.37-14.78,4.12-29.96.32-44.83-1.57-6.17-4.82-13.42-8.17-16.8-6.19-6.23-9.14-7.44-17.73-6.27,2.89-26.75,3.49-55.98-1.67-82.05-3.17-15.99-9.43-34.68-17.84-48.23-5.58-8.99-6-9.05-11.61-15.89l-8.21-8.21c-10.95-9.99-25.82-19.83-40.22-26.13-45.56-19.93-101.02-20.05-146.41.03-16.63,7.36-32.5,18.78-44.85,32.25-14.8,16.14-27.54,40.72-32.6,66.63-2.67,13.69-3.11,26.28-3.61,40.66-.25,7.29.17,14.8.24,22.12.07,7.38,1.42,13.56,1.61,20.62"/>
  <path class="cls-2" d="M250.31,278.38c.51,1.88,1.24,3.76,1.73,5.6.42,1.58.04,1.37-.73,2.71-1.8,3.12-4.58,9.55-6.04,12.93-6.83,15.79-9.71,31.54-9.71,50.84,0,20.44,4.25,58.23,8.29,77.24,10.28,48.36,39.82,104.3,84.02,130.51,10.93,6.48,23.59,7.55,37.76,7.54,25.3-.02,34.95-2.35,52.28-17.35,9.91-8.57,32.18-33.3,38.26-42.3,9.82-14.52,14.1-26.5,20.26-43.89,3.64-10.28,5.15-21.31,6.96-32.51,2-12.4,4.53-25.98,5.85-38.66,1.09-10.52,4.1-29.65,4.09-38.89-.02-18.91.19-31.55-5.64-47.59-2.01-5.53-3.97-9.41-6.34-14.51-.67-1.44-2.32-3.31-2.2-4.89.18-2.48,2.08-8.76,2.68-11.57,1.59-7.46,2.7-13.72,2.72-19.99.13-27.3-19.42-49.49-42.44-61.53-17.11,12.53-54.41,44.44-75.28,44.44s-64.55-27.86-79.87-44.52c-35.28,23.97-47.84,45.02-36.63,86.4M499.47,388.8c.37-.67,1.63-2.26,2.25-3.06,3.97-5.15,15.53-20.48,21.5-19.72,1.96.25,3.62,2.14,3.28,4.07-.25,1.44-2.81,2.95-5.28,4.59-4.03,2.67-6.05,5.14-9.27,8.64-1.01,1.09-4.86,5.53-5.35,6.61.91.95,1.55,1.07,3.41,3.18,3.35,3.79,4.35,11.02,3.34,16.26-.89,4.6-4.55,16.14-9.05,14.47-1.65-.61-1.86-1.66-1.44-3.26.44-1.68,1.68-3,2.5-4.67,5.44-11.06,1.2-16.9-1.92-18.9-1.19-.77-1.85-1.12-3.01-.37-2.97,1.93-2.79,4.76-3.63,9.16-1.48,7.79-2.28,15.75-3.72,24.08l-2.2,13.48c6.87,1.84,14.75-2.38,18.65-5.58,19.14-15.72,27.19-50.19,20.38-75.02-1.07-3.89-2.12-5.88-4.4-8.22-2.58-2.65-6.48-1.08-9.44.68-4.31,2.55-10.63,8.5-13.31,11.97-1.45,1.87-3.44,20.72-3.29,21.6ZM192.56,383.94c.03,18,8.56,42.07,22.32,53.43,4.51,3.72,13.07,8.5,18.75,4.84.41-1.92-1.86-12.54-2.37-15.56-.89-5.31-1.67-10.82-2.43-16.16-.38-2.63-.9-5.21-1.34-7.82-.24-1.39-.29-2.84-.94-3.83-4.88-7.52-10.22,3.75-9.77,8.48.28,2.99,2.1,7.72,3.65,10.28.52.86,1.54,2.03,1.77,3.04,1.04,4.7-4.96,5.26-8.36-3.41-1.77-4.52-3.29-10.25-2.46-15.65,1.3-8.59,5.95-10.32,6.93-11.65l-5.15-6.46c-5.46-6.51-8.42-8.4-10.29-9.13-2.18-.84-4.35-1.71-4.33-4.26,0-1.88,1.32-3.84,3.18-4.08,5.87-.74,17.4,14.43,21.37,19.55.37.48,2.35,3.14,2.38,3.21-.31-6.23-1.63-17-1.66-22.72-.01-2.11-8.16-7.57-10.43-8.75-6.61-3.44-13.09-5.82-16.98,1.82-3.6,7.08-3.81,18.4-3.82,24.8ZM301.35,468.52c10.45,6.82,22.86,13.52,35.55,15.89,6.68,1.25,15.41,3.21,24.18,3.37,8.69.16,17.41-1.48,24.18-2.38,8.7-1.16,17.08-3.41,24.82-6.53,5.54-2.23,8.54-3.73,13.19-7.25,2.32-1.75,4.77-3.6,4.88-3.51,9.69,8.25,2.58-5.48-.84-9.18-1.52-1.64-2.67-1.34-3.01.99-.12.79,1.27,3.13,1.14,4.43-2.35,1.89-5.78,3.78-9.24,4.96-4.47,1.54-9.51,2.53-14.25,2.48-7.42-.09-16.13.71-25.46,2.19-7.66,1.21-10.84,2.33-13.47,2.35-3.33.03-5.78-1.34-15.48-2.68-6.59-.91-15.2-2.37-22.04-2.31-8.63.08-13.38-2.08-21.17-7.01.51-.89,3.27-5.24,1.79-5.79-.99-.36-3.16.38-7.13,3.88-6.91,6.09-4.12,10.67,2.35,6.09ZM413.3,358.16c-2.54,1.47-5.81,10.67-1.53,17.52,2.42,3.87,6.87,6.72,13.87,6.69,7.19-.03,13.1-5.37,14.7-12.39.96-4.21.02-8.55-2.33-11.11,14.82,2.91,17.19,18.58,23.53,17.04,3.82-.93,1.57-7.44.3-9.82-6.36-11.91-19.22-17.75-32.78-18.93-9.4-.82-17.92-.14-25.13,3.67-10.52,5.56-19.4,20.68-13.61,23.9,8.32,4.61,3.86-13.64,22.97-16.57ZM292.69,358.22c-2.6,3.66-3.35,7.48-2.8,10.98,2.27,14.54,22.72,17.78,29.04,5.65,3.41-6.53,1.24-14.19-1.07-16.51,6.27,1.43,13.77,5.04,15.39,11.87,1.67,7.06,7.72,4.2,8.19,3.76,1.23-1.18,1.04-3.77,0-6.69-2.61-7.38-8.93-13.48-15.88-16.88-6.48-3.16-17.89-4.47-26.11-3.1-30.37,5.04-38.87,28.73-29.51,29.37,5.62.39,7.38-15.07,22.76-18.45ZM264.18,339.08c2.44-.38,7.06-1.87,8.77-2.33,16.99-4.65,31.36-4.01,48.77-3.01,5.5.32,18.47,4.54,18.73-5.4.11-4.24-2.72-6.13-6.16-7.23-5.35-1.71-16.58-2.5-22.85-3.36-7.75-1.06-15.32-2.34-22.89-3.7-8.44-1.51-8.08.27-16.29,8.44l-5.95,7.32c-1.24,1.78-3.45,4.84-3.58,7.73-.07,1.61-.02,1.76,1.44,1.53ZM470.41,338c-.17-6.67-11.86-18.41-16.03-21.96-3.47-2.96-4.31-2.99-9.58-2.03-11.87,2.15-22.59,3.68-34.56,5.25-3.6.47-8.06.81-11.39,1.85-3.28,1.03-6.08,2.96-6.1,6.91-.05,7.46,6.81,7.29,12.6,6.51,9.57-1.29,19.31-1.7,28.97-1.46,8.26.2,16.41,1.15,25.64,3.62,1.93.52,7.09,2.19,9.45,2.46,1.06.12,1.02,0,.99-1.14ZM356.09,375.97c-3.06,1.53-1.97,7.46-2.7,11.88-4.09,24.68-13.11,34.65-15.14,42.68-4.84,19.15,28.47,29.58,47.44,15.19,5.55-4.21,6.21-11.09.24-10.18-2.76.42-3.48,4.8-11.72,7.53-9.9,3.29-23.58,0-28.02-7.47-2.07-3.49,2.14-7.31,4.72-12.97,3.95-8.67,7.76-19.81,9.14-29.47.44-3.1,1.24-9.71.85-14.08-.27-3-2.08-4.48-4.81-3.11ZM385.5,499.19c-3.73,2.25-12.62,3.12-17.32,3.3-3.89.15-8.25.06-10.86-.32-4.8-.7-9.95-.96-12.98-2.63-3.55-1.96-5.66-2.1-6.37.8-1.51,9.19,42.84,12.03,51.77,3.93,3.43-3.11,1.45-8.52-4.24-5.09ZM222.75,353.6c-5.14-1.5-14.77-10.6-23.71-7.26-3.2,1.19-6.42,3.15-9.16,8.78-5.86,12.03-6.08,31.6-2.87,45.37,3.3,14.15,8.09,24.79,16.72,35.72,5.48,6.95,14.28,14.34,24.44,14.7,5.99.21,6.71.02,11.39-1.79.58.83,2.94,9.65,3.69,11.71,14.94,40.5,49.23,96,93.14,110.04,15.05,4.81,40.35,5.48,55.85,1.47,13.82-3.58,22.69-9.66,32.33-18.23l6.19-5.8c17.67-18.07,29.52-29.55,42.16-51.68,5.85-10.24,10.01-21.89,13.27-33.51,1.14-4.04,2.53-8.22,3.35-12.48,6.17,0,9.98,2.75,20.22-4.08,15.1-10.05,24.03-27.83,28.27-46.62,3.3-14.6,3.01-40.84-7.07-51.11-5.68-5.79-10.27-4.74-17.58-.71-1.18.65-7.51,4.78-7.9,4.93,1.03-5.53,2.85-7.07,4.12-18.16.79-6.88,1.29-13.52,1.75-20.45,2.6-38.82-4.8-86.03-28.31-114.85-11.69-14.34-26.41-25.44-43.7-34.03-9.68-4.81-21.81-8.62-33.1-11.44-37.93-9.5-78.98-5.17-113.1,10.42-8.93,4.08-19.94,10.82-27.34,17.21-27.62,25.53-39.66,49.16-44.96,88.4-2.37,17.53-2.35,45.37-.72,63.67.62,6.94,2.4,13.11,2.64,19.81Z"/>
</svg>