<?xml version="1.0" encoding="UTF-8"?>
<svg id="Warstwa_1" data-name="Warstwa 1" xmlns="http://www.w3.org/2000/svg" viewBox="0 0 439.47 487">
  <path d="M315.3,63.63c4.66,5.05,1.26,19.42,2.51,26.1l30.02,12.39c3.69-.09,13.62-15.75,19.49-16.33,4.44-.44,8.73,3.66,12.12,6.17,7.06,5.22,32.46,29.61,33.24,37.35s-16.94,17.02-16.2,22.13c.35,2.4,4.88,9.24,6.17,12.33,2.3,5.54,4.24,11.21,6.1,16.89,6.58,1.43,22.93-2.79,26.74,3.5,3.91,6.44,4.3,31.91,3.81,40.11-.27,4.49-1.51,16.63-3.32,20.18-3.59,7.03-20.45,2.4-27.23,3.93l-12.39,30.02c.09,3.69,15.75,13.62,16.33,19.49.55,5.56-12.6,20.55-16.85,24.95-3.71,3.85-20.74,19.07-24.78,20.18-9.1,2.48-16.45-10.65-22.73-15.62l-30.53,11.93c-1.39,7,3.01,24.17-4.5,27.68-3.12,1.46-13.69,2.63-17.57,2.87-8.29.51-35.3.44-41.82-3.22s-2.41-20.54-3.79-27.37l-30.91-12.2c-7.2,4.66-13.49,18.61-23.18,15.72-2.86-.85-14.96-11.15-17.86-13.81-4.83-4.43-21.5-21.89-22.75-27.32-2.23-9.77,12.33-15.18,15.97-23.1-4.97-9.66-9.88-19.5-12.2-30.23-6.45-1.23-20.42,1.96-25.42-1.66-3.82-2.76-4.87-14.54-5.18-19.35-.54-8.48-.63-36.3,3.23-42.83s20.34-2.39,27.36-3.8c2.3-10.66,7.2-20.44,12.08-30.05-5.03-7.24-18.84-13.87-15.61-24.06,1.54-4.86,18.44-22.87,23.03-27.03,3.52-3.2,16.02-13.68,19.96-13.85,7.92-.34,14.47,13.22,21.25,16.26l30.19-12.24c1.62-7.41-3.64-24.94,5.21-28,10.76-3.71,44.51-3.46,55.62-.35,1.45.4,3.37,1.16,4.38,2.25ZM301.32,76.59c-11.43-1.58-23.3-1.58-34.74,0v20.95c0,.92-2.97,5.14-4.35,5.86-3.71,1.93-12.43,3.26-17.36,5.12-5.86,2.22-22.09,11.8-25.82,12.06-8.3.59-13.93-10.22-19.92-14.94l-1.37-.36-24.14,23.93c4.47,6.03,17.39,13.33,16.32,21.37-.38,2.89-8.72,16.2-10.68,21.06-2.62,6.5-3.98,16.13-6.45,21.14-.67,1.35-3.67,4.37-4.82,4.37h-21.97c-1.67,11.07-1.67,23.67,0,34.74h20.95c.27,0,4.21,2.2,4.66,2.77,3.48,9.47,5.69,19.39,9.99,28.57,2.63,5.62,9.45,13.18,8.15,19.01-1.08,4.83-12.9,13.05-16.11,17.6,0,1.71,21.54,23.21,24.22,23.86,3.84.94,12.92-12.95,16.62-14.64,5.95-2.72,20.04,7.49,26.58,10.16,4.91,2,21.08,5.8,23.15,8.01.35.38,2.36,4.04,2.36,4.29v20.95c11.32,1.63,23.4,1.63,34.74,0v-21.97c0-1.16,3.02-4.16,4.37-4.82,5.68-2.8,16.1-4.43,23.18-7.47,6.04-2.59,17.13-10.73,22.79-9.48,5.17,1.15,13.35,14.12,16.78,15.02,1.86.49,7.19-4.42,9.02-5.99,5.82-5.02,10.7-11.25,15.74-17.02-4.14-7.98-16.5-12.19-15.32-22.37.38-3.29,6.81-12.65,8.72-16.86,1.65-3.64,3.28-7.91,4.67-11.68,1.41-3.83,3.15-17.92,8.65-17.92h21.97c1.65-11.52,1.28-23.2,0-34.74h-21.97c-1.24,0-4.07-3.03-4.81-4.38-3.24-5.9-5.22-17.82-8.5-25.21-2.91-6.54-11-15.73-8.12-22.5,1.39-3.26,13.91-12.08,14.68-15.04.47-1.81-5.37-8.17-7.02-10.04-1.87-2.12-14.6-14.29-16.07-14.68-3.82-1.01-13.06,13.15-16.67,14.68-6.8,2.9-17.71-6.21-24.54-9.14-6.88-2.96-17.96-4.61-23.17-7.48-1.35-.75-4.38-3.57-4.38-4.81v-21.97Z"/>
  <path d="M142.03,376.88l145.05.56c3.07,1,4.71,5.2,5.07,8.21,1.07,8.98.78,34.18-1.35,42.64-5.02,19.95-24.36,28.59-43.64,26.35,1.15,14.05.51,29.73-16.85,31.68-8.32.94-38.92,1.07-46.3-.7-14.18-3.41-15.14-18.83-14.49-30.98-17.8,1.84-35.47-5.53-41.67-23.21-5.14-14.67-1.08-36.83-2.29-52.89-2.64-35.04-34.01-59.82-49.21-89.76-49.11-96.77,8.44-223.09,121.26-229.55,6.41-.37,18-1.94,18.96,6.59,1.43,12.69-11.36,8.9-18.96,9.76-93.76,10.64-143.66,99.59-114.23,187.77,14.11,42.28,54.37,67.73,58.64,113.53ZM275.78,393.34h-133.85v29.12c0,.53,1.74,5.02,2.21,5.96,3.55,7.17,10.14,9.35,17.67,9.92,31.23,2.34,65.46-1.74,97-.16,6.63.48,16.97-9.83,16.97-15.72v-29.12ZM230.82,454.65h-44.96c.57,5.18-2.33,14.57,4.54,15.38,11.81,1.41,26.59-1.04,38.74-.2,3.26-1.07,1.05-12.07,1.68-15.18Z"/>
  <path d="M200.92.13c3.1-.64,7.67,1.1,8.94,3.93.84,1.86,1.08,28.1.5,31.13-1.11,5.84-9.73,7.62-13.82,3.64-3.49-3.4-3.21-25.75-2.27-30.97.6-3.35,3.17-7.01,6.64-7.73Z"/>
  <path d="M4.71,207.59c2.61-.76,28.22-.69,31.24,0,5.94,1.36,6.56,10.88,2.14,13.96-4.19,2.92-25.81,2.98-31.11,1.73-8.65-2.04-9.09-13.7-2.27-15.7Z"/>
  <path d="M94.63,331.32c2.2,1.86,2.95,6.5,2.12,9.19-.46,1.49-20.1,21.1-21.89,22.04-8.02,4.21-15.47-4.61-9.08-13.17,1.85-2.47,16.88-17.58,19.01-18.8,3.02-1.73,7.15-1.54,9.84.73Z"/>
  <path d="M86.44,94.69c-2.27,2.66-7.4,3.14-10.48,1.36-1.28-.74-20.06-19.82-20.75-21.13-4.02-7.63,4.64-15.44,13.17-9.09,2.25,1.68,17.83,17.21,18.81,19,1.52,2.8,1.34,7.4-.75,9.85Z"/>
  <path d="M276.6,124.92c71.97-6.03,120.76,72.27,84.81,134.88-34.65,60.36-123.55,58.92-156.66-2.34-30.97-57.3,7.49-127.15,71.85-132.54ZM343.23,256.42c12.07-14.17,16.19-36.12,13.01-54.4-9.69-55.76-77.05-80.25-120.32-43.19-28.98,24.82-33.06,65.68-13.26,97.59,1.12.76,5.75-10.57,6.71-12.18,6.72-11.26,16.59-20.9,29.04-25.64.64-.93-3.83-5.99-4.81-7.95-10.05-20.05,2.97-46.16,25.72-48.28,31.86-2.97,49.17,30.78,30.2,55.66,15.52,8.14,28.95,21.05,33.72,38.38ZM278.57,179c-16.33,3.37-16.32,31.68,2.83,33.49,27.51,2.6,25.42-39.31-2.83-33.49ZM238.2,272.56c.67,1.16,13.5,8.29,15.75,9.26,19.75,8.57,42.57,8.27,62.06-1,3.74-1.78,13.86-7.25,13.97-11.57.09-3.33-3.15-11.52-4.78-14.74-15.27-30.08-58.03-34.06-78.46-7.19-3.32,4.37-11.34,20.43-8.54,25.24Z"/>
</svg>