<?xml version="1.0" encoding="UTF-8"?>
<svg id="Warstwa_1" xmlns="http://www.w3.org/2000/svg" version="1.1" viewBox="0 0 490 487">
  <!-- Generator: Adobe Illustrator 29.5.1, SVG Export Plug-In . SVG Version: 2.1.0 Build 141)  -->
  <path d="M489.99,304.73c-10.99,157.55-196.15,238.68-317.67,137.7-.71-.59-1.61-.93-2.53-.93l-79.8-.39c-.75,0-1.49-.21-2.12-.61-6.36-4.1-2.35-13.74,4.75-13.74h54.16c3.4,0,5.29-4,3.12-6.64-18.48-22.52-32.22-48.1-40.55-76.32-.51-1.72-2.05-2.91-3.83-2.93l-76.01-.67h-.13c-5.13-.41-9.77-2.1-9.63-8.02.11-4.46,2.49-6.02,5.6-6.27h78.8c.91-.69,1.21-1,1.25-2.19.15-4.24-2.41-13.5-2.69-18.67-1.11-21.01,1.15-41.19,5.6-61.5.55-2.53-1.38-4.92-3.94-4.92h-39.62c-7.09,0-9.81-9-4.88-13.45.68-.62,1.6-.91,2.51-.92l49.19-.61c1.63-.02,3.07-1.03,3.69-2.55,12-29.71,30.49-55.97,54.09-77.19,2.77-2.49,1.02-7.1-2.68-7.1h-24.08c-6.01,0-10-10.18-3.75-13.83.6-.35,1.29-.52,1.98-.52l57.52-.25c.59,0,1.18-.13,1.72-.39,7.1-3.38,13.89-7.41,21.18-10.39,6.86-2.81,26.49-12.05,23.71,3.53-.91,5.08-15.97,8.77-20.82,11.02-106.36,49.45-141.91,182.71-68.93,277.42,82.55,107.12,250.82,85.45,304.89-38.34,53.79-123.15-39.54-260.54-172.36-254.41-5.18.24-17.86,3.61-21.6.44-4.37-3.71-3.02-11.16,2.61-12.82,4.25-1.25,14.19-1.99,18.94-2.22,7.74-.37,15.52.13,23.22.66,1.84.13,3.52-1.02,4.1-2.78l8.62-26.2c.69-2.1-.39-4.38-2.46-5.11-2.94-1.05-6.87-2.01-8.2-2.67-7.17-3.53-10.19-10.81-9.39-18.66.56-5.49,8.47-29.68,11.54-33.93,4.84-6.72,11.32-8.3,19.26-6.84,5.27.97,33.35,10.14,37.49,12.59,7.06,4.17,4.39,13.82-3.74,13.92-.27,0-.54-.02-.81-.08-7.43-1.53-34.55-13.7-39.07-12.21-1.37.45-1.54,1.7-2.1,2.78-1.53,2.97-7.53,20.87-7.97,24.02-.07.53-.15,1.04-.19,1.54-.15,1.83,1.06,3.5,2.79,4.07l101.45,33.14c.62.2,1.3.15,1.89-.15h0c.66-.34,1.12-.96,1.29-1.68,1.88-7.98,7.27-17.56,8.48-25.03v-.04c.31-1.93-.78-3.8-2.6-4.47l-35.47-13.1c-.7-.26-1.33-.71-1.79-1.3-4.55-5.8.06-13.09,7.59-11.73,6.08,1.1,31.2,9.62,36.72,12.47,7.03,3.62,11.18,10.54,10.27,18.56-.46,4.03-9.46,30.52-11.62,33.87-6.19,9.63-16.59,8.23-25.89,5.25-2.11-.67-4.36.5-5.05,2.62l-8.36,25.94c-.58,1.79.15,3.72,1.72,4.72,46.88,29.55,79.86,80.19,88.39,135.49.77,5.02,1.88,11.8,2.19,16.54v26.17c0,.11,0,.22-.01.33l.02-.02ZM389.1,85.26l-47.11-15.12c-2.12-.68-4.38.5-5.06,2.63l-6.93,21.65c-.75,2.36.74,4.82,3.15,5.25,16.35,2.91,31.66,9.59,47.08,15.29,2.19.81,4.6-.45,5.24-2.71l6.28-21.99c.61-2.12-.57-4.34-2.65-5.01h0Z"/>
  <path d="M0,129.13v-.21c0-2.03.8-4.02,2.32-5.34,1.1-.96,2.19-1.24,4.84-1.36,27.86-1.27,59.11-.83,88.2-.04,2.01.05,4.01.58,5.68,1.72,6.6,4.53,2.8,12.99-7.31,12.93-27.12-.16-58.77-.49-85.73-.2-2.16-.26-3.07-.6-4.81-1.62-2.04-1.2-3.19-3.5-3.19-5.89h0Z"/>
  <path d="M.93,282.45v-.02c0-2.48,1.03-4.92,2.99-6.42,1.04-.8,2.29-1.29,4.2-1.52,10.65-1.27,40.29-1.24,50.98,0,9.37,1.09,9.37,13.5,0,14.59-10.69,1.24-40.33,1.27-50.98,0-3.1-.37-4.44-1.43-6.02-3.36-.75-.92-1.17-2.07-1.17-3.26h0Z"/>
  <path d="M284.14,138.05c121.98-9.05,205.09,122.33,144.51,230.2-59.58,106.09-214.65,101.66-268.66-7.56-48.18-97.43,16.69-214.67,124.14-222.64h.01ZM332.39,157.17c-29.98-8.22-63.22-6.42-91.27,7.32,1.93,6.3,15.73,23.9,2.29,25.62-8.5,1.09-10.98-11.75-14.6-18.14-.4-.7.19-1.8-1.55-1.15-2.75,1.03-11.13,7.09-13.96,9.21-19.89,14.84-37.63,37.64-45.25,61.49,6.97,1.81,27.55,5.43,19.68,16.47-5.08,7.13-17.1-2.36-23.24-2.75-1.4-.09-1.49.42-2,1.52-1.64,3.53-3.73,18.62-4.04,23.08-1.51,22.07,1.58,47.83,12.1,67.31,5.54-1.62,23.18-15.22,25.36-3.28,1.83,10.02-12.39,12.18-19.21,15.97,13.83,27.92,40.72,51.34,70.15,61.08,1.79-6.73,5.04-26.96,15.93-20.43,7.83,4.7-2.3,19.34-2.47,26.24,30.89,7.08,61.89,5,91.3-6.79-.16-7.28-13.28-19.52-5.85-25.78,9.67-8.14,15.67,11.99,18.36,18.03,27.74-13.95,50.62-41.29,60.5-70.75l-102.14-33.08c-3.56,6.07-9.47,9.36-14.94,13.32-.97,7.06,6.82,26.86-3.58,28.42-12.9,1.94-8.23-19.46-11.41-27.18-14.8-2.45-27.03-14.95-27.49-30.47-.17-5.75,1.81-9.67,2.49-15.03-13.52-13.85-29.02-25.78-42.82-39.29-4.14-4.06-11.22-9.39-5.77-15.55,2.15-2.43,5.54-3.16,8.42-1.67l48.98,44.72c7.58-2.63,14.01-6.27,22.43-6.13l33.6-102.34h0ZM345.85,162.01l-32.64,101.39c.12,2.4,6.82,7.2,8.6,9.65,4.39,6.02,5.67,13.62,6.2,20.89l100.88,33.84c2.34-.51,5.19-23.83,5.39-27.54,3.36-59.76-32.55-117.82-88.45-138.23h.02ZM292.73,274.73c-19.7,3.65-15.87,35.97,5.44,33.65,22.22-2.42,18.13-38.01-5.44-33.65Z"/>
  <path d="M107.22,185c-.87,1.09-3.49,2.23-4.96,2.26-21.54.44-46.42.82-68.29-.02-9.5-1.03-9.82-14.43,0-14.59,20.54-.34,45.86-.04,67.32,0,6.09,0,9.75,7.57,5.94,12.35h-.01Z"/>
  <path d="M47.65,376.53c4.68-1.05,32.98-.96,38.18-.15,8.11,1.27,8.09,13.17,0,14.43-6.1.95-31.28.96-37.37,0-8.13-1.28-8.29-12.6-.81-14.28Z"/>
</svg>