<svg width="64" height="64" viewBox="0 0 64 64" fill="none" xmlns="http://www.w3.org/2000/svg">
  <circle cx="32" cy="32" r="16" fill="#FED7AA"/>
  <path d="M20 28C20 28 24 24 32 24C40 24 44 28 44 28" stroke="#374151" stroke-width="2" fill="none"/>
  <circle cx="26" cy="30" r="2" fill="#374151"/>
  <circle cx="38" cy="30" r="2" fill="#374151"/>
  <path d="M32 34C30 36 34 36 32 34Z" fill="#DC2626"/>
  <path d="M16 20C16 16 20 12 32 12C44 12 48 16 48 20C48 16 44 12 32 12C20 12 16 16 16 20Z" fill="#DC2626"/>
  <circle cx="46" cy="18" r="3" fill="#F3F4F6"/>
  <path d="M20 40C24 44 28 44 32 44C36 44 40 44 44 40" stroke="#F3F4F6" stroke-width="3"/>
</svg>