<svg width="64" height="64" viewBox="0 0 64 64" fill="none" xmlns="http://www.w3.org/2000/svg">
  <!-- Main heart -->
  <path d="M32 56C26 50 12 36 12 24C12 16 18 12 26 16C28 14 30 14 32 16C34 14 36 14 38 16C46 12 52 16 52 24C52 36 38 50 32 56Z" fill="#DC2626"/>
  
  <!-- Heart highlight -->
  <path d="M32 52C28 48 16 36 16 26C16 20 20 18 24 20C26 18 28 18 32 22C36 18 38 18 40 20C44 18 48 20 48 26C48 36 36 48 32 52Z" fill="#F87171"/>
  
  <!-- Inner heart glow -->
  <path d="M32 48C30 46 22 38 22 30C22 26 24 24 26 26C28 24 30 24 32 28C34 24 36 24 38 26C40 24 42 26 42 30C42 38 34 46 32 48Z" fill="#FDE2E2"/>
  
  <!-- Cupid arrow -->
  <g transform="translate(32, 32)">
    <line x1="-16" y1="-8" x2="16" y2="8" stroke="#F59E0B" stroke-width="2"/>
    <!-- Arrow head -->
    <polygon points="12,4 16,8 12,12 14,8" fill="#F59E0B"/>
    <!-- Arrow feathers -->
    <polygon points="-16,-8 -20,-6 -20,-10 -16,-8" fill="#F59E0B"/>
    <polygon points="-16,-8 -20,-4 -20,-12 -16,-8" fill="#EAB308"/>
  </g>
  
  <!-- Decorative roses -->
  <g transform="translate(16, 16)">
    <circle cx="0" cy="0" r="3" fill="#DC2626"/>
    <circle cx="0" cy="0" r="2" fill="#F87171"/>
    <circle cx="0" cy="0" r="1" fill="#FDE2E2"/>
    <!-- Rose leaves -->
    <ellipse cx="-2" cy="2" rx="1" ry="2" fill="#10B981" transform="rotate(-30)"/>
    <ellipse cx="2" cy="2" rx="1" ry="2" fill="#10B981" transform="rotate(30)"/>
  </g>
  
  <g transform="translate(48, 16)">
    <circle cx="0" cy="0" r="3" fill="#DC2626"/>
    <circle cx="0" cy="0" r="2" fill="#F87171"/>
    <circle cx="0" cy="0" r="1" fill="#FDE2E2"/>
    <!-- Rose leaves -->
    <ellipse cx="-2" cy="2" rx="1" ry="2" fill="#10B981" transform="rotate(-30)"/>
    <ellipse cx="2" cy="2" rx="1" ry="2" fill="#10B981" transform="rotate(30)"/>
  </g>
  
  <!-- Small floating hearts -->
  <g fill="#F87171" opacity="0.7">
    <g transform="translate(8, 32)">
      <path d="M0 4C0 2 2 0 4 2C6 0 8 2 8 4C8 6 4 10 4 10C4 10 0 6 0 4Z" transform="scale(0.5)"/>
    </g>
    <g transform="translate(56, 28)">
      <path d="M0 4C0 2 2 0 4 2C6 0 8 2 8 4C8 6 4 10 4 10C4 10 0 6 0 4Z" transform="scale(0.4)"/>
    </g>
    <g transform="translate(12, 48)">
      <path d="M0 4C0 2 2 0 4 2C6 0 8 2 8 4C8 6 4 10 4 10C4 10 0 6 0 4Z" transform="scale(0.3)"/>
    </g>
    <g transform="translate(52, 48)">
      <path d="M0 4C0 2 2 0 4 2C6 0 8 2 8 4C8 6 4 10 4 10C4 10 0 6 0 4Z" transform="scale(0.4)"/>
    </g>
  </g>
  
  <!-- Sparkles -->
  <g fill="#FDE047" opacity="0.8">
    <g transform="translate(8, 8)">
      <polygon points="0,-2 0.5,-0.5 2,0 0.5,0.5 0,2 -0.5,0.5 -2,0 -0.5,-0.5"/>
    </g>
    <g transform="translate(56, 12)">
      <polygon points="0,-1.5 0.4,-0.4 1.5,0 0.4,0.4 0,1.5 -0.4,0.4 -1.5,0 -0.4,-0.4"/>
    </g>
    <g transform="translate(4, 48)">
      <polygon points="0,-1 0.3,-0.3 1,0 0.3,0.3 0,1 -0.3,0.3 -1,0 -0.3,-0.3"/>
    </g>
    <g transform="translate(60, 52)">
      <polygon points="0,-1.2 0.3,-0.3 1.2,0 0.3,0.3 0,1.2 -0.3,0.3 -1.2,0 -0.3,-0.3"/>
    </g>
  </g>
</svg>