<svg width="64" height="64" viewBox="0 0 64 64" fill="none" xmlns="http://www.w3.org/2000/svg">
  <!-- Dog -->
  <g transform="translate(16, 20)">
    <!-- Head -->
    <ellipse cx="0" cy="0" rx="8" ry="6" fill="#8B4513"/>
    <!-- Ears -->
    <ellipse cx="-6" cy="-4" rx="3" ry="5" fill="#654321"/>
    <ellipse cx="6" cy="-4" rx="3" ry="5" fill="#654321"/>
    <!-- Eyes -->
    <circle cx="-3" cy="-1" r="1.5" fill="#374151"/>
    <circle cx="3" cy="-1" r="1.5" fill="#374151"/>
    <circle cx="-2.5" cy="-1.5" r="0.5" fill="#FFFFFF"/>
    <circle cx="3.5" cy="-1.5" r="0.5" fill="#FFFFFF"/>
    <!-- Nose -->
    <ellipse cx="0" cy="2" rx="1.5" ry="1" fill="#374151"/>
    <!-- Mouth -->
    <path d="M0 3C-2 5 2 5 0 3Z" fill="#F87171"/>
    <!-- Tongue -->
    <ellipse cx="0" cy="5" rx="1" ry="2" fill="#F87171"/>
    
    <!-- Body -->
    <ellipse cx="0" cy="12" rx="6" ry="8" fill="#A0522D"/>
    <!-- Tail -->
    <ellipse cx="8" cy="8" rx="2" ry="6" fill="#8B4513" transform="rotate(30)"/>
    <!-- Legs -->
    <ellipse cx="-4" cy="18" rx="1.5" ry="4" fill="#654321"/>
    <ellipse cx="-1" cy="18" rx="1.5" ry="4" fill="#654321"/>
    <ellipse cx="1" cy="18" rx="1.5" ry="4" fill="#654321"/>
    <ellipse cx="4" cy="18" rx="1.5" ry="4" fill="#654321"/>
  </g>
  
  <!-- Cat -->
  <g transform="translate(48, 28)">
    <!-- Head -->
    <ellipse cx="0" cy="0" rx="6" ry="5" fill="#D3D3D3"/>
    <!-- Ears -->
    <polygon points="-4,-5 -6,-1 -2,-1" fill="#D3D3D3"/>
    <polygon points="4,-5 6,-1 2,-1" fill="#D3D3D3"/>
    <polygon points="-4,-4 -5,-2 -3,-2" fill="#F87171"/>
    <polygon points="4,-4 5,-2 3,-2" fill="#F87171"/>
    <!-- Eyes -->
    <ellipse cx="-2" cy="-1" rx="1" ry="1.5" fill="#10B981"/>
    <ellipse cx="2" cy="-1" rx="1" ry="1.5" fill="#10B981"/>
    <ellipse cx="-2" cy="-1" rx="0.3" ry="1" fill="#374151"/>
    <ellipse cx="2" cy="-1" rx="0.3" ry="1" fill="#374151"/>
    <!-- Nose -->
    <polygon points="0,1 -0.5,2 0.5,2" fill="#F87171"/>
    <!-- Mouth -->
    <path d="M0 2C-1 3 1 3 0 2Z" stroke="#374151" stroke-width="0.5" fill="none"/>
    <!-- Whiskers -->
    <line x1="-6" y1="0" x2="-3" y2="1" stroke="#374151" stroke-width="0.5"/>
    <line x1="-6" y1="2" x2="-3" y2="2" stroke="#374151" stroke-width="0.5"/>
    <line x1="6" y1="0" x2="3" y2="1" stroke="#374151" stroke-width="0.5"/>
    <line x1="6" y1="2" x2="3" y2="2" stroke="#374151" stroke-width="0.5"/>
    
    <!-- Body -->
    <ellipse cx="0" cy="8" rx="5" ry="6" fill="#E5E5E5"/>
    <!-- Tail -->
    <ellipse cx="6" cy="6" rx="1.5" ry="5" fill="#D3D3D3" transform="rotate(45)"/>
    <!-- Legs -->
    <ellipse cx="-3" cy="12" rx="1" ry="3" fill="#D3D3D3"/>
    <ellipse cx="0" cy="12" rx="1" ry="3" fill="#D3D3D3"/>
    <ellipse cx="3" cy="12" rx="1" ry="3" fill="#D3D3D3"/>
  </g>
  
  <!-- Paw prints -->
  <g fill="#8B4513" opacity="0.6">
    <g transform="translate(8, 8)">
      <circle cx="0" cy="0" r="2"/>
      <circle cx="-1" cy="-3" r="1"/>
      <circle cx="1" cy="-3" r="1"/>
      <circle cx="-2" cy="-1" r="1"/>
      <circle cx="2" cy="-1" r="1"/>
    </g>
    
    <g transform="translate(56, 52)">
      <circle cx="0" cy="0" r="1.5"/>
      <circle cx="-1" cy="-2" r="0.8"/>
      <circle cx="1" cy="-2" r="0.8"/>
      <circle cx="-1.5" cy="-0.5" r="0.8"/>
      <circle cx="1.5" cy="-0.5" r="0.8"/>
    </g>
  </g>
  
  <!-- Hearts -->
  <g fill="#F87171" opacity="0.8">
    <path d="M32 16C32 14 34 12 36 14C38 12 40 14 40 16C40 18 36 22 36 22C36 22 32 18 32 16Z"/>
    <path d="M24 52C24 50 26 48 28 50C30 48 32 50 32 52C32 54 28 58 28 58C28 58 24 54 24 52Z"/>
  </g>
</svg>