<svg width="64" height="64" viewBox="0 0 64 64" fill="none" xmlns="http://www.w3.org/2000/svg">
  <!-- Wedding rings -->
  <circle cx="24" cy="28" r="8" stroke="#FFD700" stroke-width="3" fill="none"/>
  <circle cx="40" cy="28" r="8" stroke="#E5E7EB" stroke-width="3" fill="none"/>
  
  <!-- Ring gems -->
  <circle cx="24" cy="20" r="2" fill="#DC2626"/>
  <circle cx="40" cy="20" r="2" fill="#3B82F6"/>
  
  <!-- Interlocked connection -->
  <path d="M32 28C32 28 28 24 24 28C24 32 28 36 32 28C36 36 40 32 40 28C40 24 36 28 32 28Z" fill="#F87171" opacity="0.3"/>
  
  <!-- Hearts -->
  <g fill="#F87171">
    <path d="M28 12C28 10 30 8 32 10C34 8 36 10 36 12C36 14 32 18 32 18C32 18 28 14 28 12Z"/>
    <path d="M20 48C20 46 22 44 24 46C26 44 28 46 28 48C28 50 24 54 24 54C24 54 20 50 20 48Z"/>
    <path d="M36 48C36 46 38 44 40 46C42 44 44 46 44 48C44 50 40 54 40 54C40 54 36 50 36 48Z"/>
  </g>
  
  <!-- Wedding bells -->
  <g transform="translate(12, 42)">
    <path d="M0 8C0 4 2 0 6 0C10 0 12 4 12 8C12 12 6 16 6 16C6 16 0 12 0 8Z" fill="#FFD700"/>
    <circle cx="6" cy="16" r="1.5" fill="#FFD700"/>
    <rect x="5" y="14" width="2" height="3" fill="#D1D5DB"/>
  </g>
  
  <g transform="translate(40, 42)">
    <path d="M0 8C0 4 2 0 6 0C10 0 12 4 12 8C12 12 6 16 6 16C6 16 0 12 0 8Z" fill="#FFD700"/>
    <circle cx="6" cy="16" r="1.5" fill="#FFD700"/>
    <rect x="5" y="14" width="2" height="3" fill="#D1D5DB"/>
  </g>
  
  <!-- Decorative flowers -->
  <g fill="#EC4899" opacity="0.6">
    <circle cx="8" cy="16" r="2"/>
    <circle cx="56" cy="16" r="2"/>
    <circle cx="8" cy="56" r="2"/>
    <circle cx="56" cy="56" r="2"/>
  </g>
</svg>