<svg width="64" height="64" viewBox="0 0 64 64" fill="none" xmlns="http://www.w3.org/2000/svg">
  <!-- Santa's face -->
  <circle cx="32" cy="28" r="14" fill="#FBBF9A"/>
  
  <!-- Santa's hat -->
  <path d="M18 20C18 12 24 8 32 8C40 8 46 12 46 20C46 16 40 8 32 8C24 8 18 16 18 20Z" fill="#DC2626"/>
  <circle cx="44" cy="16" r="4" fill="#F3F4F6"/>
  
  <!-- Eyes -->
  <circle cx="27" cy="26" r="2" fill="#374151"/>
  <circle cx="37" cy="26" r="2" fill="#374151"/>
  <circle cx="27.5" cy="25.5" r="0.8" fill="#FFFFFF"/>
  <circle cx="37.5" cy="25.5" r="0.8" fill="#FFFFFF"/>
  
  <!-- Nose -->
  <circle cx="32" cy="30" r="1.5" fill="#F87171"/>
  
  <!-- Mustache -->
  <ellipse cx="28" cy="32" rx="3" ry="1.5" fill="#F3F4F6"/>
  <ellipse cx="36" cy="32" rx="3" ry="1.5" fill="#F3F4F6"/>
  
  <!-- Beard -->
  <path d="M20 35C24 42 28 44 32 44C36 44 40 42 44 35C44 40 40 46 32 46C24 46 20 40 20 35Z" fill="#F3F4F6"/>
  
  <!-- Body -->
  <ellipse cx="32" cy="52" rx="12" ry="8" fill="#DC2626"/>
  
  <!-- Belt -->
  <rect x="24" y="48" width="16" height="3" fill="#374151"/>
  <rect x="30" y="47" width="4" height="5" fill="#F59E0B"/>
  
  <!-- Buttons -->
  <circle cx="32" cy="45" r="1" fill="#F59E0B"/>
  <circle cx="32" cy="52" r="1" fill="#F59E0B"/>
  
  <!-- Arms -->
  <ellipse cx="44" cy="46" rx="4" ry="8" fill="#DC2626"/>
  <ellipse cx="20" cy="46" rx="4" ry="8" fill="#DC2626"/>
  
  <!-- Gloves -->
  <circle cx="44" cy="54" r="3" fill="#374151"/>
  <circle cx="20" cy="54" r="3" fill="#374151"/>
</svg>