<svg width="64" height="64" viewBox="0 0 64 64" fill="none" xmlns="http://www.w3.org/2000/svg">
  <!-- Christmas Tree -->
  <!-- Tree trunk -->
  <rect x="30" y="48" width="4" height="8" fill="#92400E"/>
  
  <!-- Tree layers (bottom to top) -->
  <polygon points="32,12 20,32 44,32" fill="#10B981"/>
  <polygon points="32,16 22,30 42,30" fill="#059669"/>
  <polygon points="32,8 24,24 40,24" fill="#10B981"/>
  <polygon points="32,12 26,22 38,22" fill="#059669"/>
  <polygon points="32,4 28,16 36,16" fill="#10B981"/>
  <polygon points="32,8 30,14 34,14" fill="#059669"/>
  
  <!-- Star on top -->
  <g transform="translate(32, 4)">
    <polygon points="0,-4 1,-1 4,0 1,1 0,4 -1,1 -4,0 -1,-1" fill="#FDE047"/>
    <polygon points="0,-2.5 0.7,-0.7 2.5,0 0.7,0.7 0,2.5 -0.7,0.7 -2.5,0 -0.7,-0.7" fill="#F59E0B"/>
  </g>
  
  <!-- Christmas ornaments -->
  <g fill="#DC2626">
    <circle cx="28" cy="20" r="2"/>
    <circle cx="36" cy="24" r="2"/>
    <circle cx="26" cy="28" r="2"/>
    <circle cx="38" cy="28" r="2"/>
  </g>
  
  <!-- Ornament highlights -->
  <g fill="#F87171">
    <circle cx="28.5" cy="19.5" r="0.8"/>
    <circle cx="36.5" cy="23.5" r="0.8"/>
    <circle cx="26.5" cy="27.5" r="0.8"/>
    <circle cx="38.5" cy="27.5" r="0.8"/>
  </g>
  
  <!-- Blue ornaments -->
  <g fill="#3B82F6">
    <circle cx="30" cy="26" r="1.5"/>
    <circle cx="34" cy="20" r="1.5"/>
    <circle cx="32" cy="30" r="1.5"/>
  </g>
  
  <!-- Blue ornament highlights -->
  <g fill="#93C5FD">
    <circle cx="30.5" cy="25.5" r="0.6"/>
    <circle cx="34.5" cy="19.5" r="0.6"/>
    <circle cx="32.5" cy="29.5" r="0.6"/>
  </g>
  
  <!-- Presents under tree -->
  <g transform="translate(16, 52)">
    <!-- Present 1 -->
    <rect x="0" y="0" width="6" height="4" fill="#DC2626"/>
    <rect x="2.5" y="0" width="1" height="4" fill="#F59E0B"/>
    <rect x="0" y="1.5" width="6" height="1" fill="#F59E0B"/>
  </g>
  
  <g transform="translate(44, 50)">
    <!-- Present 2 -->
    <rect x="0" y="0" width="4" height="6" fill="#10B981"/>
    <rect x="1.5" y="0" width="1" height="6" fill="#F59E0B"/>
    <rect x="0" y="2.5" width="4" height="1" fill="#F59E0B"/>
  </g>
  
  <!-- Snow/sparkles -->
  <g fill="#F8FAFC" opacity="0.8">
    <circle cx="8" cy="16" r="1"/>
    <circle cx="56" cy="20" r="1.2"/>
    <circle cx="12" cy="36" r="0.8"/>
    <circle cx="52" cy="40" r="1"/>
    <circle cx="6" cy="48" r="0.6"/>
    <circle cx="58" cy="52" r="0.8"/>
  </g>
  
  <!-- Sparkle effects -->
  <g stroke="#F8FAFC" stroke-width="0.5" opacity="0.6">
    <line x1="8" y1="12" x2="8" y2="20"/>
    <line x1="4" y1="16" x2="12" y2="16"/>
    <line x1="56" y1="16" x2="56" y2="24"/>
    <line x1="52" y1="20" x2="60" y2="20"/>
  </g>
</svg>