<svg width="64" height="64" viewBox="0 0 64 64" fill="none" xmlns="http://www.w3.org/2000/svg">
  <!-- Cake base -->
  <rect x="8" y="32" width="48" height="24" rx="4" fill="#FEF3C7"/>
  <rect x="8" y="32" width="48" height="6" fill="#F59E0B"/>
  
  <!-- Cake layers -->
  <rect x="12" y="28" width="40" height="8" rx="2" fill="#EC4899"/>
  <rect x="16" y="24" width="32" height="8" rx="2" fill="#3B82F6"/>
  <rect x="20" y="20" width="24" height="8" rx="2" fill="#10B981"/>
  
  <!-- Layer decorations -->
  <circle cx="20" cy="32" r="1.5" fill="#FBBF24"/>
  <circle cx="28" cy="32" r="1.5" fill="#FBBF24"/>
  <circle cx="36" cy="32" r="1.5" fill="#FBBF24"/>
  <circle cx="44" cy="32" r="1.5" fill="#FBBF24"/>
  
  <circle cx="24" cy="28" r="1" fill="#F3F4F6"/>
  <circle cx="32" cy="28" r="1" fill="#F3F4F6"/>
  <circle cx="40" cy="28" r="1" fill="#F3F4F6"/>
  
  <circle cx="28" cy="24" r="1" fill="#FDE047"/>
  <circle cx="36" cy="24" r="1" fill="#FDE047"/>
  
  <circle cx="32" cy="20" r="1" fill="#F87171"/>
  
  <!-- Birthday candles -->
  <g stroke="#FDE047" stroke-width="1">
    <!-- Candle 1 -->
    <rect x="19" y="8" width="2" height="12" fill="#DC2626"/>
    <ellipse cx="20" cy="6" rx="1.5" ry="2" fill="#F97316"/>
    <ellipse cx="20" cy="4" rx="0.8" ry="1.5" fill="#FDE047"/>
    
    <!-- Candle 2 -->
    <rect x="31" y="6" width="2" height="14" fill="#DC2626"/>
    <ellipse cx="32" cy="4" rx="1.5" ry="2" fill="#F97316"/>
    <ellipse cx="32" cy="2" rx="0.8" ry="1.5" fill="#FDE047"/>
    
    <!-- Candle 3 -->
    <rect x="43" y="8" width="2" height="12" fill="#DC2626"/>
    <ellipse cx="44" cy="6" rx="1.5" ry="2" fill="#F97316"/>
    <ellipse cx="44" cy="4" rx="0.8" ry="1.5" fill="#FDE047"/>
  </g>
  
  <!-- Icing drips -->
  <g fill="#F3F4F6">
    <ellipse cx="14" cy="36" rx="2" ry="1"/>
    <ellipse cx="26" cy="38" rx="3" ry="1.5"/>
    <ellipse cx="38" cy="36" rx="2.5" ry="1"/>
    <ellipse cx="50" cy="38" rx="2" ry="1"/>
  </g>
  
  <!-- Party decorations -->
  <g fill="#F87171" opacity="0.7">
    <!-- Balloons -->
    <ellipse cx="4" cy="16" rx="3" ry="4" fill="#DC2626"/>
    <line x1="4" y1="20" x2="4" y2="28" stroke="#374151" stroke-width="1"/>
    
    <ellipse cx="60" cy="12" rx="3" ry="4" fill="#3B82F6"/>
    <line x1="60" y1="16" x2="60" y2="24" stroke="#374151" stroke-width="1"/>
    
    <ellipse cx="8" cy="8" rx="2.5" ry="3" fill="#10B981"/>
    <line x1="8" y1="11" x2="8" y2="18" stroke="#374151" stroke-width="1"/>
  </g>
  
  <!-- Confetti -->
  <g fill="#FDE047" opacity="0.8">
    <rect x="12" y="8" width="2" height="2" transform="rotate(45)"/>
    <rect x="48" y="4" width="1.5" height="1.5" transform="rotate(30)"/>
    <rect x="6" y="32" width="1" height="1" transform="rotate(60)"/>
    <rect x="56" y="36" width="1.5" height="1.5" transform="rotate(15)"/>
  </g>
  
  <g fill="#EC4899" opacity="0.8">
    <circle cx="16" cy="4" r="1"/>
    <circle cx="52" cy="8" r="0.8"/>
    <circle cx="4" cy="40" r="1.2"/>
    <circle cx="60" cy="44" r="0.8"/>
  </g>
  
  <!-- Birthday text decoration -->
  <g fill="#F59E0B" opacity="0.6">
    <polygon points="32,48 30,52 34,52" transform="rotate(0 32 50)"/>
    <polygon points="28,50 26,54 30,54" transform="rotate(15 28 52)"/>
    <polygon points="36,50 34,54 38,54" transform="rotate(-15 36 52)"/>
  </g>
</svg>