<?xml version="1.0" encoding="UTF-8"?>
<svg id="Warstwa_1" data-name="Warstwa 1" xmlns="http://www.w3.org/2000/svg" viewBox="0 0 312.26 295.79">
  <path d="M23.98,223.15l40.41-40.06c9.4-7.59,16.2-5.74,24.72,1.5,4.24,3.6,10.57,12.16,14.56,14.62,2.46,1.52,5.26,1.5,7.83.3l79.01-78.93c9.4-7.92,16.24-8.33,25.85-.36l71.1,70.75v-53.52c0-1.94,3.57-6.28,5.29-7.43,7.39-4.93,16.5-.69,18.48,7.61-1.58,35.81,2.72,74.39.21,109.89-1.78,25.22-24.16,46.23-49.03,48.28H49.77c-25.27-1.77-45.88-21.24-49.65-46.16l-.12-186.32C2.9,38.26,23.29,18.43,48.32,15.81h139.21c14.9,1.49,16.65,20.33,2.27,23.96-43.23,1.97-88.84-2.67-131.79-.05-17.86,1.09-34.03,9.17-34.03,29.6v153.82Z"/>
  <path d="M287.47,41.25v37.05c0,.31-1.52,3.5-1.9,4.08-4.69,7.2-15.45,7.2-20.15,0-.38-.59-1.9-3.77-1.9-4.08v-37.05c-1.85.9-2.87,2.95-4.54,4.07-11.81,7.86-25.01-5.87-16.06-17.56,3.59-4.69,20.44-21.66,25.07-25.08s9.91-3.66,14.62-.36c4.09,2.86,22.23,21.21,25.46,25.44,8.9,11.67-4.32,25.36-16.06,17.56-1.67-1.11-2.69-3.17-4.54-4.07Z"/>
  <path d="M90.45,87.85c22.85-1.79,29.71,31.57,8.17,38.89-28.94,9.84-37.79-36.57-8.17-38.89Z"/>
</svg>