<?xml version="1.0" encoding="UTF-8"?>
<svg id="Warstwa_1" xmlns="http://www.w3.org/2000/svg" version="1.1" viewBox="0 0 1024 1024">
  <!-- Generator: Adobe Illustrator 29.5.0, SVG Export Plug-In . SVG Version: 2.1.0 Build 137)  -->
  <path d="M281,738c-2.9-.5-1.6.7-2.3,2.2-8.6,18.9-8.6,38.9-30.7,50.6-3.3,25.5-9.5,61.5-43.4,58.1-12.7-1.3-46.7-9.6-59.2-13.8-16-5.4-21.9-18.2-20.3-34.4s8.1-29.2,7.9-39.2-5.9-11.6-6.8-17.2-.1-11.9,0-17.5c31.1-124.6,52.7-253.6,85.4-377.6,12.6-47.5,34.5-81.3,81.3-100.7l103.9-36.6c.2-29.9-6.2-69,32.6-75.9h164.1c38.3,6.2,34.6,46.3,32.9,76.1l111.9,40.1c35.2,16.7,62,48.4,71.6,86.4,26.7,122,58.4,243.1,83.6,365.4,2.8,13.6,7.3,28.3,4,42.1s-6.3,12.6-6.5,14.5c-.8,7.9,7.2,30.7,8,40.9,1.3,16.8-5.1,28.4-21.3,33.8-12,4-48.4,13.1-60.2,13.8-17.9,1-30.5-11.8-35-28s-3.2-25-6-30-10.6-8.3-13.5-11.5c-11.8-13.1-10.8-23.6-16.7-38.3s.6-2.7-2.2-2.2c.1,23.3,1.3,48.4-14,67.5-4,5-9.6,8.5-13.8,13.2.6,14.5,2,31.3.9,45.8-.9,11.6-6.4,21.8-18.5,24.5l-374.6-.5c-26.4-5.4-14-52-17.1-70.9-9.5-8.1-17.6-17.1-21.8-29.2s-4-13.9-4-17v-34.5ZM438.4,182.6c6.2,6.9,24.2,26.8,32.3,28.2,25.6-1.9,56.9,3.3,81.8.3,11.8-1.4,29.5-27.2,39.5-34.5l.5-6.6-3-1h-154.1c-10.2,2.7-.7,9.6,3,13.6ZM496,244h-31.5c-7.2,0-20.3-9.4-26-14s-5.7-8.4-10.5-6c7.2,29.7,36.9,53,66.9,55.9,0-.8,1.1-2,1.1-2.4v-33.5ZM559.5,244c-9.5,1.3-21.7-1-31.5,0v36c28.6-3.1,64-26.7,68-57-5.7-.2-8.5,5.9-12.5,9-6.1,4.7-16.4,11-24,12ZM328.5,793h166l.5-480c-40.6-2.5-78-30.5-94.6-67.1-37.2,14.2-75.8,25.1-111.7,42.3l-8.7,6.4c20.3,29.5,29.7,64.5,33,99.9v374c-.7,7.9,7.6,22.9,15.5,24.5ZM529,793h165.5c.9,0,5.3-2.8,6.4-3.6,5.9-4.5,9.5-11.5,10.1-18.9,1.8-20.8,1.2-44.2,0-65,3.2-99.3-4.1-201.1,0-300.1,1.4-32.8,8.8-66.6,24.5-95.5s6.4-9.6,9.3-14.5l-19.8-13-99.4-35.4c-15.8,31.1-48.2,55.6-82,64s-13.3,1.5-14.7,3.3l-.9,122.1c1.8,73.4,1,147.6,1.1,220.9,0,45.2-.1,90.4,0,135.5ZM259,320c-2.8-2.1-8.4,12.8-9,14.5-5.1,13.8-8.8,31.2-12.3,45.7-28.6,116.8-51.6,235.1-78.7,352.3-.3,5.1-.3,9.5,4.7,12.3l62.8,16.2c4.9.7,9.4-1.8,12.5-5.5l42-122c-3.3-75.9,4.4-155.5,0-231-1.6-28.5-10.7-56.6-22-82.5ZM768,320c-2.3-.5-1.6.3-2.2,1.3-10,15.4-20.4,56.8-21.7,75.2v239s39.2,117.8,39.2,117.8c3.1,4.5,7.2,8.4,13.2,7.8,19.4-6.3,43.9-8.6,62.5-15.6s5.7-3.4,6.5-7.9c-25.3-116.5-49.3-233.6-77-349.5-5.5-23-9.7-46.8-20.5-68ZM214,789l-47.4-11c-8.4,1-6.2,19.1-8.5,25.4l48.5,12.3c2.3-.4,7.2-22.9,7.4-26.6ZM816.1,814.9l48.9-10.4.9-1.9c-2.8-6.7,0-25.2-10.3-24.6l-45.7,11,6.1,25.9ZM496,826h-156v32h156v-32ZM684,826h-155v32.9h155v-32.9Z"/>
  <path d="M571.7,606.2l96.8-.2c8.4.8,14,8.4,14.5,16.5-2.6,34.6,3.3,74,0,108s-16.8,29.9-32.5,31.5-48,1.6-61.9-.1c-16-1.9-28.4-19-29.6-34.4-2.7-34.1,2.1-71.6,0-106,.8-7.6,5.7-12.8,12.7-15.3ZM652,639h-61c.7,22.8-1,45.8,0,68.5,0,2.1.9,4,1,6,.3,4.6-1.8,14.8,3,17l41.5.5,13.2-2.3,2.2-89.7Z"/>
  <path d="M356.8,605.3c27.1.7,55.8-1.9,82.7-.3,3.4.2,10.7.7,13.5,1.5,8.3,2.1,11.6,13.4,12,21-2.2,32.3,2.8,68.1,0,100s-12.1,29.2-28,33c-11.8,2.9-53.6,2.9-66.4,1.4-16.4-1.9-28.3-17.6-29.6-33.4-2.9-33.8,2.2-71.8,0-106,1.1-9.3,6.2-15.9,15.7-17.3ZM433,639h-60v88.5c0,5,19.8,2.4,23.6,2.5,8.2,0,17.8,1.2,25.9,1.1s10.5-1.8,10.5-5.6v-86.5Z"/>
</svg>