<?xml version="1.0" encoding="UTF-8"?>
<svg id="Warstwa_1" xmlns="http://www.w3.org/2000/svg" version="1.1" viewBox="0 0 1024 1024">
  <!-- Generator: Adobe Illustrator 29.5.0, SVG Export Plug-In . SVG Version: 2.1.0 Build 137)  -->
  <path d="M623.1,219.9c23.9,6.6,48,12.9,71.4,21.1,67.3,23.6,78.6,43.4,96,111,34.6,135,45,276.4,61.5,414.5,2.5,24.1-22.7,32.4-41.8,36.2s-29.8,4.7-42.6,5.4c-21.2,1-29.5-3-35.5-23.6-8.7-30.3-12.6-63.7-17.2-94.8s-.4-6-1.9-6.6c2.7,50-.6,100.3,0,150.5-3.1,15.3-19.6,19.4-32.8,22.2-38.1,8.1-81.8,9.1-120.7,10.3-67.5,2-143.1,2.7-209.7-9.2-13.1-2.4-35.9-6.4-38.6-22.4-3.8-22.9,3.2-53.2-1.3-76.7-.2-23.4,0-46.7,1.1-70s.8-5.3-1.5-4.5c-3.8,32.2-9,64.6-17,96-6.1,24-10.4,30.2-37,29-17-.8-42.2-4.1-58-10-34.5-12.8-24.4-30-21.5-59.5,12.2-122.2,24.9-244.8,52.5-364.5,5.6-24.4,13.4-61.1,25.7-82.3,28.1-48.3,97.6-55.2,145.8-72.2,2.4-12.7,4.8-25.4,6.8-38.2s-1-28.7,14.7-41.3c30-24.3,130.9-22,166-8,11.5,4.6,22.2,13.5,26.8,25.2l8.8,62.7ZM438.1,163.1c-1.7,2.9,4.6,6.5,6.6,7.7,29.5,17.7,99.8,17,130.3,1.7,4.2-2.1,7.9-4.4,11-8,0-1.3-7.8-5-9.3-5.7-27.9-12.1-101.6-11.9-129.7-.3-3.1,1.3-5.8,3.3-8.9,4.6ZM498,212c-22.5-1.9-45.6-4.7-66-15l-6.8,35.7c14.5,25.9,45.4,32.6,72.8,35.3v-56ZM526,212v54.5c.7.9,1,1.3,2.3,1.3,3.6,0,12-1.4,16-2.1,20.4-3.5,44.9-13.2,53.8-33.2l-6-35.5c-20.5,10-43.4,13.1-66,15ZM498,836.5V297c-37.2-.5-75.5-15.8-95.6-48-29.5,9-62.1,15.8-90.1,28.9-34.7,16.2-40.2,39.4-49.2,73.8-35.6,134.6-46.1,276-63.2,413.9l.6,2.5c20.6,7.9,43.4,10,65.5,10.9,12.7-61.9,22-124.7,28.9-187.6,6.2-56.3,9-112.4,13.1-168.9.4-5.9,1.3-22.9,4-27,7.9-11.9,27.1-2.7,26,11,.1,85.4,0,170.9,0,256,0,53.8,0,107.6.2,161.4,16.4,5,33.4,6.9,50.4,9.1l59,4c14.7-2.1,33,2.7,47.1,1,1.5-.2,2.6-.1,3.4-1.6ZM526,297v539.5c5.3,3.6,13.6.6,19.5.5,26.8-.7,53.3-.6,80-3,20.3-1.8,40.9-4.2,60.4-10.1-.5-52.5-1-104.9-.9-157.4.2-79.6-.7-160.4,2.1-239.9.3-9.7-2.8-25.8,4.5-32.5s21.8-2.9,23.4,8.6c1.9,14.1,1,31.4,2.1,45.9,3.9,53.6,9,107.5,15.1,160.9,6.5,56.9,14.6,113.7,27,169.5,21.7-.6,44.5-3.1,65-10.5v-6.9c-16.4-129.9-27.1-261-57.5-388.5s-13.6-76.3-56.2-95.8c-27.9-12.8-59.4-19.5-88.8-28.2-20,32.2-58.5,47.6-95.6,48.1Z"/>
  <path d="M371.7,611.2c5.6-1.2,11.9.5,15.3,5.3s2.2,10,2,15c-1.4,45.8-7,91.9-7.1,137.9-1.1,8-8.7,13.1-16.4,12.7-16.5-.9-10.8-22.1-10.5-32.6,1.3-39.1,1.9-82.2,6-121s2-15.5,10.7-17.3Z"/>
  <path d="M643.7,612.2c5.2-1.1,11.1-.2,14.8,3.7s3.9,11.9,4.4,17.6c2.5,26.4,2.7,53.4,4,80,.8,16.9,4.6,40.9,3,57.1s-26.3,13.2-28-2.1c-2.1-18.4-1-40.2-2-59-1.3-24.1-4.2-49.1-5-73s-2.5-21.9,8.7-24.3Z"/>
</svg>