<?xml version="1.0" encoding="UTF-8"?>
<svg id="Warstwa_1" xmlns="http://www.w3.org/2000/svg" version="1.1" viewBox="0 0 1024 1024">
  <!-- Generator: Adobe Illustrator 29.5.0, SVG Export Plug-In . SVG Version: 2.1.0 Build 137)  -->
  <path d="M599.1,200.9c78.7,10.9,142,65.8,161.4,143.1,9.1,36.4,3.5,72.4,6.4,109.3,32.9,5.5,59.9,30.9,62.1,65.1,4,60.5-3.1,125.2,0,186.1-4.3,32.6-30.6,58-62.9,62.6-1.1,17.5,2.1,35.8-2.6,52.9-8.8,31.5-40.9,54.7-73,57h-360.1c-34.1-2.7-62.1-28.2-69.8-61.2-3.8-16.2-2.4-32.2-2.8-48.7-33.4-4.9-60.4-31.3-62.9-65.6-4.3-58.7,3.4-122.8,0-182.1,2.2-34.1,29.5-61.5,63-65.5.7-39.4-3.5-77.7,7.5-116,21.6-75,82.9-127.2,160.4-137.1,1.8-50.4,50.1-88.2,99.5-80.8s72.4,40.5,73.8,80.7ZM500.8,152.3c-17.6,2.4-36.2,17.9-41,35-.8,2.8-3.4,11.5-.8,13.3l107.6-.5c1.7-18.8-15.2-37.8-31.9-44.2s-23.3-5-33.9-3.6ZM686.6,274.4c-24.8-23.8-58.9-38.7-93-42.5-53.3,2.8-110.2-3.6-163,0-76.4,5.3-137,73.7-141.6,148.4v417.1c2.6,27.7,21.6,46.6,49.5,48.5,118.6-.9,237.3,1.6,355.8-1.3,26.2-4.5,42.1-25.9,41.8-52.2v-408c-2.2-40-20.7-82.4-49.5-110.1ZM766,486.5v247c1.5,2.3,7.1-.6,9.4-1.6,13-6.1,21.6-18.8,22.7-33.3,4.2-58.1-3.2-121.3-.2-179.9-1.4-11.9-10.8-25.3-21.5-30.5-2-1-9.6-4.4-10.4-1.6ZM258,486c-16.7,1.9-30.2,18.3-31.9,34.6,2.5,56.6-3.7,116.7-.2,172.9s11.6,36.7,32,41.5v-249Z"/>
  <path d="M368.7,509.2l282.8-.3c22.2,2.7,37.9,24.1,39.5,45.5,4.6,61.2-3.5,128.2,0,190-2.7,18.8-16.1,35.7-35,40-93.2,3.4-187.1.5-280.6,1.5-22.9-2.2-39.6-21.2-42.4-43.6v-189c1.7-21,14.7-39.4,35.7-44.3ZM364,552.5c-1.9,13.5,1.4,31.1,0,45l1.5,1.5h293l1.5-1.5v-44c0-3.7-6.7-12.3-11-13l-270.5-.5c-7.2.8-13.4,5-14.5,12.5ZM660,630h-296v111.5c0,4.4,6.5,12.6,11.5,12.5l274.6-.5c4-.6,10-8.7,10-12v-111.5Z"/>
</svg>