<?xml version="1.0" encoding="UTF-8"?>
<svg id="Warstwa_1" xmlns="http://www.w3.org/2000/svg" version="1.1" viewBox="0 0 1024 1024">
  <!-- Generator: Adobe Illustrator 29.5.0, SVG Export Plug-In . SVG Version: 2.1.0 Build 137)  -->
  <path d="M513,809c-2-1.9-3.2,4.1-3.5,5-9.9,28.4-15.4,59.4-25,88-5.9,12.2-23.3,9.4-35.1,9-50.1-1.7-110.5-10.7-158.7-24.3-12-3.4-34.5-6.8-33.7-23.1,15-65.1,28.6-130.5,43.4-195.7,3.3-14.4,9.7-31.5,11.2-45.8s-1.8-36.6.4-52.6,5.4-10.8,10.9-13.1l375.6-.5c6.6.2,12.7,6,13.5,12.5,1.7,13.7-1,30.8,0,45.1s7.9,35.1,11.6,51.4c14.6,65.6,29.2,131.2,44.2,196.8,4.1,19.2-24.7,23.3-38.5,26.9-49.8,13.3-112.1,22.1-163.7,23.3-12.3.3-22.1,1.5-27.3-11.8l-25.2-91.3ZM684,585h-344v21h344v-21ZM737,857l-49.9-222.5-350-.4-49,223c56.5,14.1,114.7,23.8,173,25.5l38.1-134.8c5.9-9.1,18.8-9.1,24.7,0l38.3,135.2c59.1-1.2,117.9-11.2,174.9-25.9Z"/>
  <path d="M385.8,100.3c10.6-1.1,33.4-1.6,43.7-.3s10.9,13.1,12.8,22.2c14.6,73.8,122.6,76.4,138,4.6,2.4-11.2-.3-25.4,15.1-26.9,9.3-.9,41.6-1,49.6,1.5,14.4,4.5,8.3,22.9,7.9,33-1.4,36.1,6.1,86.3,35.6,110.5s22,11.6,23.4,20.6v250c-.2,7.6-6.9,13.4-14.4,13.5h-371.1c-6.9-.3-12.1-4.6-13.8-11.2l-.6-251.2c1.4-9.9,12.8-13.7,19.8-19.2,27.2-20.9,39.2-67.7,39-100.8,0-9.4-3.6-24-2.5-32.6s8.6-12.8,17.4-13.7ZM415,129h-17c4.6,53.5-11.3,115.9-57.9,147.1-.3.4.9,1.1.9,1.4v221c0,.3-1.3.8-1,1.5h344v-222.5c-47.9-33.6-62.2-92.5-59-148.5h-17c-6.7,33.9-29.9,63.7-63.5,74s-47.7,6.2-70-2c-30.9-11.3-52.7-40.3-59.5-72Z"/>
  <path d="M535.8,255.3c10.3-1.4,42.5-1.3,51.8,1.7,16.1,5.2,25.2,21.2,26.5,37.5,2.8,35.9-2.1,75.6-.2,111.9-5,39.2-43,39.1-74.4,36.7-20.6-1.6-34.9-18.4-36.5-38.5-2.9-36.8,2-77.6.3-114.8,2.8-16.4,15.4-32.2,32.5-34.5ZM543.7,286.2c-3.7.7-6.1,3-8,6l-.5,111c.6,2.7,4.8,6.9,7.5,7.5,3.9.9,26.5.8,30.6,0s8.3-5.5,8.8-10.2l-.3-105.8c-1.2-3.4-3.7-7.7-7.5-8.5-4.2-.9-26-.8-30.6,0Z"/>
  <path d="M438,301c-9.7,10.1-18.2,8.8-26.5-2s.2-16.5,7.5-24.5,17.6-18.3,20-19,20.2-1,23.3-.2,6.6,4.6,7.3,7.7v171.1c-.8,10.8-21.6,11.2-27.6,6.5s-4-4.4-4-5v-134.5Z"/>
</svg>