<?xml version="1.0" encoding="UTF-8"?>
<svg id="Warstwa_1" xmlns="http://www.w3.org/2000/svg" version="1.1" viewBox="0 0 1024 1024">
  <!-- Generator: Adobe Illustrator 29.5.0, SVG Export Plug-In . SVG Version: 2.1.0 Build 137)  -->
  <path d="M693,256c46.6,9.3,102.2,33.5,118.3,82.2,10.4,31.6,17.7,71.7,25.2,104.8,21,92.7,36.8,186.3,54.4,279.6,4.8,13.1-7.6,30.8-7.9,40.9-.3,9.8,6.8,28,7.9,39.1,2.7,28.1-9.4,37.2-34.7,43.1-16.3,3.8-58.1,12.5-72.8,8.3-23.3-6.6-22.5-42.5-28.4-61.4l-15.1-11.7c-2.6,14-12.6,23.9-23.8,31.7-2.3,26.9,9.8,67-26.3,74.7l-351.3.6c-39.8-4.9-29-46.7-30.7-75.3-12.1-7.7-20.8-17.5-24.3-31.7l-15,12c-6.6,20.8-3.8,59.3-33,62-17.1,1.6-56.2-5.8-73.6-10.5-20.6-5.6-30.7-18.1-28.9-39.9s9-31.9,8.7-41.2-13-27.5-8.8-38.8c24.1-129.4,47.3-259.1,79.2-386.8,18.4-49.3,71.2-72.6,119.7-81.8-7.7-15.3-11.6-27-8.9-44.4,9.1-58.2,74.6-82.5,125.7-90.3,71.6-11,217.9-7.1,248,75.5s7.1,39.2-3.7,59.2ZM557,275c31.2-3.9,74.6-11.4,99-32.5,19-16.4,9.3-41.6-7-56-44.7-39.6-154.6-39.8-210-28s-84.1,25-81,65,3.9,13.4,11.6,19.4c20.1,15.8,70.5,31.7,96,32.1,1.1,0,2.8.5,2.5-1l-56.3-32.2c-17.8-8.6-13.4-38.6,9.1-33.1,4.3,1.1,13.4,6.7,17.9,9.1,26,14.2,50.7,31.6,73.8,50,20.9-17.7,44-33.5,67.8-47,5.5-3.1,18.3-11.1,23.7-12.3,20.7-4.7,25.7,22.7,10.4,32.3l-57.3,34.2ZM333.5,787c6.5.9,14.8-.7,21.5,0v-80.5c13-17.8,26.6-34.7,32.7-56.3s4-23.1,6.7-34.3c2.6-10.3,4.4-15.1,16-16h204.1c6.7.2,11.6,4,13.8,10.2,3.4,9.8,3.8,24.5,6.6,35.4,6.1,23.8,20,41.4,34.1,60.9v80.5h21.5c8.8,0,20.4-15.8,20.5-24.5v-361c3.7-19.6,30.7-18.1,33,2v306c.4,5.3,12.1,34.8,15.1,39.8s11.3,11.7,14.6,12.5l79-15c2.8-6.6,4.6-13.9,4.1-21.1-17.3-99-36.1-197.7-58.4-295.6-6-26.3-14.3-80.4-30.1-99.9-23.6-29-70.6-39.3-105.4-47.7h-2c-29.4,15-62.4,21.8-94.9,26.6l-.5,120c-3.5,13.9-23.4,16.6-31,4.9-.5-.8-2.5-5-2.5-5.5v-116.5c-13.4.6-26.6,1.1-40,0v115.5c0,.4-2.6,6-3.2,6.8-7.8,11.9-27.8,8-30.4-6.3l-.6-119c-33.2-4.4-65.2-14.3-96.1-26.9-22.7,5.4-46.1,11.1-67.5,20.6-50,22.2-49.2,43.3-60.8,92.2-26,109.4-46.1,220.2-66.3,330.8,1,6.8.3,19.7,7.9,22.5l75.1,13.5c3.3-.7,12.7-9.4,14.6-12.5,2.8-4.6,15.8-38.1,16.2-42.8v-304c3.2-21.7,32.8-18.7,33,3,1.2,117-1.7,234.1,0,351.1,0,2.4-.9,4.5-.8,6.7.5,9.9,10.1,22.3,20.2,23.8ZM388,718.5v67c0,.3-1.3.8-1,1.5h250c.3-.7-1-1.2-1-1.5v-68c-20.9-22.5-33.9-52.8-37-83.5h-173.4c-4.4,31.3-17.4,60.3-37.6,84.5ZM234,793l-63-11-4.9,28.4,60.9,11.6,7-29ZM853,782l-63,11,7,29,60-10.5c1.4-1,1-2.4.9-3.9-.5-7.8-4.4-17.5-4.9-25.7ZM342,821v32h340v-32h-340Z"/>
</svg>