<?xml version="1.0" encoding="UTF-8"?>
<svg id="Warstwa_1" xmlns="http://www.w3.org/2000/svg" version="1.1" viewBox="0 0 1024 1024">
  <!-- Generator: Adobe Illustrator 29.5.0, SVG Export Plug-In . SVG Version: 2.1.0 Build 137)  -->
  <path d="M276,459v28c18.3-4.8,29.6,5.3,27,24h57.5c2,0,10,3.5,12,5,3.4,2.6,7,8.1,7.5,12.5v242.1c-1,11.8-8.6,19.4-20.5,20.5l-198.8-.3c-8.6-2-15.7-9.4-16.7-18.3l.4-245.6c1.9-6.7,5.9-11.2,12.3-13.7,10.6-4.1,46.6-2.7,59.8-2.3s3.6.8,5.4,1c-2.8-19.5,6.9-28.2,26-26v-27h-16.5c-.3,0-4.7-2.8-5.2-3.3-5.5-5.4-3.1-21.3-3.3-29.2-.6-20.9-1.1-42.2-1.5-63.5l-100.5-226.6c0-8.4,3.1-15.2,11.9-17,6.2-1.3,45.4-1.4,51.1,0s7.1,3.8,9.2,6.8c5.1,7.6,10.8,22.1,15,31,18.5,39.7,35.1,80.3,54.3,119.7l60.3-134.7c5-8.1,7.4-22,18.7-23.3s36.2-1.1,46,0,14.1,8.3,14.3,17.2c-31.1,77.9-68.2,153.5-101.6,230.5-2,24.9,1.9,52.2-.2,76.8-1.3,15.1-10.7,16.5-24,15.5v.2ZM235,331c1.8.4,2-.5,2.8-1.7,3.4-5.4,5.4-13.7,8.8-19.3v-2l-72.7-160.3-2.5-2.4-17.4-.3,81,186h0ZM254,358h19.5c.2,0,.8,1,1.5.6l93.8-211.3.2-2.3-18,.5-97,212.5ZM272,385h-21v49h21v-49ZM250,510v18h25v-16.5c0-.3,1.4-1.4,1-2.5-8.4,2.8-17.4,2.6-26,1ZM353,538h-48.5c-5,12.6-5.5,16.1-20,17s-40.2,1.5-49.6-.5-14.1-8.3-13.4-15.6l-1-1h-48l-1.5,1.5v224l182,1.5v-227h0Z"/>
  <path d="M840,763c6.1,48.8-31.7,92.7-80.5,96-47,3.2-99.3-1.3-146.6-1.5-30.7-6.3-58-28.9-66.4-59.6-1.6-5.8-2.4-11.6-3.4-17.6l-126.3-.7c-9.3-1.7-12.2-14.5-8.5-22s5.1-5.7,6.3-5.7h127l1.5-1.5v-216c0-2.9,5.2-10.9,9.2-10.8l276.4-.7c17.9,1.2,11.6,25.8,11.9,38l1.1.9c36.5-6.5,80.7,12,91.5,49.5,5.1,17.6,4.6,68.5,3,88.1-2.4,30.7-31.6,63.5-63.5,63.5h-32.7ZM812,552h-236.5c-.5,0-4.2,1.8-4.5,2.5l2.1,1.9-1.1,217.1c.9,27.9,21.3,50.7,48.6,55.4,44.5-2,91.8,3,135.9.2,34.1-2.2,52.7-25.6,54.5-58.5,3.2-58.8.7-126.1,0-185.1s-3.5-23.3,1-33.5ZM840,592v139.5l1.5,1.5h22c16.6,0,33.8-9.1,39.5-25.5s4.5-73.8,0-88.1c-3.7-11.9-19.6-27.5-32.5-27.5h-30.5Z"/>
  <path d="M689.5,321c4.9,1,10.1,6.9,11.1,11.9,3.3,17.9,4.5,41.9,6.4,60.6,2.8,27.2,7.2,59.1,8,85.9.2,5.5.5,9.5-3,14-7.3,9.4-23,6.7-25.8-5.2-3.5-34.5-5.8-69.2-9.2-103.8s-2.3-24.1-4.6-35.6h-295.4l-15.5,128.1c-6.3,12.2-27.3,12.1-28.4-3.4l17.1-142.9c1-2.6,3.5-5.6,5.9-7.1,7.4-4.9,23.2-2.3,32.5-2.5s16-2.3,24-.3l1-.7c3.2-37.7-6-77.3,9-113,31.7-75.5,135.2-90.3,188-28,7.5,8.8,25.5,39.8,25.5,50.5v90l1.5,1.5h52-.1ZM606,321v-84.5c0-8.7-11.2-29.1-16.6-36.4-35.4-48.4-110.6-38.8-137,13.9-2.1,4.2-8.5,20.7-8.5,24.5v81l162,1.5h0Z"/>
  <path d="M594,457h-137.5l-1.5,1.5v130l1.5,1.5h50c9.5,0,16.7,24.8,1.8,27.8l-70.7.2c-17.8-5.7-7.3-26.7-11.6-40.4,3.3-43.2-4.2-92.6,0-135.1,0,0,3.2-11,8.3-12.7l181.3.2c3.4,1.3,6.8,6.1,7.4,9.6,1.4,9.4,1,34.3.5,44.6-.9,17.5-21.2,19.3-29,4.9l-.4-32.1h0Z"/>
  <path d="M209.7,589.2c31.8,2.2,69.6-3.7,100.8-.2,6.9.8,12.7,4.6,14.5,11.5-.3,31.5,3.7,67.8,1,99.1s-5.7,17.6-16.5,18.5c-30.6,2.7-65.1-2.1-96.1,0-9.5-1-15.6-5.7-16.5-15.5-2.8-31.8,2.2-67.8,0-100.1,1.3-7.3,5.5-11.8,12.8-13.2h0ZM298,616h-73v75h73v-75Z"/>
  <path d="M624.7,598.2c41.9,2.2,88.5-3.8,129.8-.3,9.7.8,15.6,5.5,16.5,15.5,3.7,41.4-2.9,88.1,0,130.1-.5,10.3-8,14.7-17.5,15.5-39.9,3.4-84.6-2.7-125.1,0-10.2-.3-15.6-5.4-16.5-15.5-3.8-42.3,2.9-90.2,0-133,.5-7.1,6.3-10.9,12.7-12.3h0ZM640,626v104h102v-104h-102Z"/>
</svg>