<?xml version="1.0" encoding="UTF-8"?>
<svg id="Warstwa_1" xmlns="http://www.w3.org/2000/svg" version="1.1" viewBox="0 0 1024 1024">
  <!-- Generator: Adobe Illustrator 29.5.0, SVG Export Plug-In . SVG Version: 2.1.0 Build 137)  -->
  <path d="M760,488v362.5c0,6.2-10.1,14.1-16.5,13.5h-462.1c-5.7.8-16.5-7.1-16.5-12.5v-362.5c-2.3.3-4.6,2.6-6.5,4-11.2,8.7-18,19.9-33.4,8.4l-119.6-118.4c-10.3-12.7-.1-21.6,8-31,23.3-27.2,48.2-53.3,72-80,24.9-27.9,48.5-65.1,84.7-77.3,40.2-13.5,82.6-22,123.2-33.8,13.1-.5,29.7,8.5,42.8,12.3,49.1,14.5,100.7,14.6,149.8.2,14.2-4.2,31.8-14.1,46.4-12.4,39.3,12.9,82.5,20.2,121.4,33.6,18.3,6.3,28.8,15.6,41.7,29.3,37.9,40.2,75.6,84.3,112,126,8.9,10.3,21.8,17.6,10,33l-117.6,117.4c-15.8,14.4-28-2.8-39.9-12.4ZM299,407.5v421.5h425v-421.5c0-1,3.4-7.1,4.3-8.2,5.6-6.2,20.6-6.7,26.7-.9,9.4,8.9,2.7,29.8,5.5,41.5l23.9,22.1,2.8.8,91.6-90.5c-12.4-16.2-27-30.9-40.4-46.3-26.7-30.5-52.6-62.3-81.1-90.9-34-14.2-70.9-20.8-106.1-31.9l-3.2-.2c-6.5,59.9-48.4,111.6-108.8,122.7-76.7,14.1-146.4-33.4-160.9-109.5s-1.2-13.7-2.8-14l-106.4,31.4c-5,2.7-8.7,6.4-12.6,10.4-25.3,26.2-49.7,57.4-74,85-12.6,14.4-25.7,28.3-38.4,42.6l92.6,92.3,27.9-23.9c2.1-10.6-1.1-24.2.6-34.4,2.4-14.8,31-15.9,34,1.9ZM611,202c-22.7,8.8-46.6,15.2-71,17-.8,6.1,1.5,43.8-1.2,45.8-6.3,1.6-52.8,2.1-54.7.2l-1.1-45.9c-18.2-2-36.2-5.5-53.7-10.8s-10.5-4.7-14.8-5.2-1.5,0-1.5,1.5c0,4.5,2.4,12.7,3.8,17.2,9.7,31.8,35,58,67.3,66.7,62,16.8,121-22.7,127-86.5Z"/>
</svg>