<?xml version="1.0" encoding="UTF-8"?>
<svg id="Warstwa_1" xmlns="http://www.w3.org/2000/svg" version="1.1" viewBox="0 0 1024 1024">
  <!-- Generator: Adobe Illustrator 29.5.0, SVG Export Plug-In . SVG Version: 2.1.0 Build 137)  -->
  <path d="M545.6,202.4c7.5,7.1,13.5,18.3,14.4,28.6,70.8,8,143,42.8,188.9,97.6,68.4,81.6,81.9,185.1,78.3,288.7,17.5,46.8,77.2,120.5,23.3,163.7-32.6,26.1-60.1,9.3-91.8-4.2-142.5-60.6-322.5-64-467.9-10.6-37.7,13.8-76.9,47.2-116.2,15.7-56-44.9,4.7-115.2,21.4-164.5.9-59.3,1.7-117,18.6-174.4,33.4-113.6,130-202.6,250.5-212,3.7-38.9,52.2-55.6,80.6-28.7ZM524,229c-7.1-8.3-16.5-9.9-23,0h23ZM495,546v-283.5l-2.3-1.3c-28.6,2.8-57.4,7.1-84.7,16.3-68.5,23.3-125.4,80.2-151.8,147.2s-28.2,108.2-24.7,163.3c42.5-12,85.4-23.9,129.2-30.8,44.5-7.1,89.4-8.4,134.3-11.2ZM529,263.5v282.5c45.6,1.6,91.2,5,136.3,12.2,43.4,6.9,85.2,18.1,127.2,30.8,5.2-82.5-13.8-169.2-65.1-234.9-28.2-36.2-75.5-65.7-119.4-78.6-25.6-7.5-53.3-12.4-80-13.5-.5.4,1,1.2,1,1.5ZM481.8,580.3c-85.7,2.9-170.8,14.8-251.2,44.8-2,1.4-5.1,8.8-6.5,11.5-11.3,22.5-25.2,51.4-34.3,74.7-5.5,14.1-9,23.7-.2,37.6,16.6,26.5,49.4,2.6,69.7-6.1,145.4-62.3,348.6-62.4,495.4-4,17.2,6.9,46,24.5,63.7,22.1s21.8-21.6,20.6-34.4-29.9-70.3-38.1-86.9c-2.1-4.3-5.3-12.6-9.2-14.8-10.1-5.8-39-13.1-51.5-16.5-60.8-16.7-120.7-24.7-183.8-27.2-2.4,0-4.6-1-6.9-1.1l-67.7.3Z"/>
</svg>