<?xml version="1.0" encoding="UTF-8"?>
<svg id="Warstwa_1" xmlns="http://www.w3.org/2000/svg" version="1.1" viewBox="0 0 1024 1024">
  <!-- Generator: Adobe Illustrator 29.5.0, SVG Export Plug-In . SVG Version: 2.1.0 Build 137)  -->
  <path d="M321,605l-5.3,28.2c-14.3,47.7-21.2,99.9-35.8,147.2-12.5,40.5-41.1,30-73.3,21.5-36.9-9.7-46.6-12.6-40.3-54.1s10.5-54.5,16-81c19.3-94.1,41.7-188.6,76.9-278.1,10.9-27.6,20.6-42,48.1-54.9,22.6-10.7,47.7-18.9,70.7-28.8-4.2-11.3-8.8-22.7-10.7-34.8-2-12.7-2.6-28.8-1.2-41.6,18.8-163.1,307.4-155.9,292.7,32.7-1.2,15.5-6.7,30.2-11.9,44.6,22.3,8.3,46.1,16.7,67.7,26.8,26.6,12.5,37.6,25.1,48.8,52.2,42.6,103.5,68.6,223.7,89.2,333.8,4.3,22.7,17.7,59.3-6.7,73.7s-52.2,16.6-63.5,17.5c-20.7,1.6-33.2-10.7-38.2-29.8l-41.3-176.2v239.5c0,20.4-42,27.5-56.8,30.2-77.3,13.9-191,14-268.4,0-16-2.9-56.8-9.3-56.8-31.2v-237.5ZM630,234c-5.4-45.4-39.8-78.5-83.8-87.7-57.5-12-128.5,7.5-147.5,68.9-1.8,5.8-4,12.9-3.2,18.8,18.4-9.5,40.6-13.5,61.1-15.9,42.3-4.9,86.7-4.5,128.6,3.2,15.3,2.8,30.5,6.7,44.8,12.7ZM407,260c14,14.9,37.8,20.1,57.6,22.9,13.7,1.9,29.1,1,42.1,5.9,2.1.8,5.4,3.8,6.8,3.8s9.3-3.8,12.3-4.4c12-2.4,25.2-2.4,37.4-4.6,18.7-3.4,39-9.9,52.8-23.2,0-3.2-31.6-10.2-36-11-40.7-7.4-87.5-7.4-128.4-1.3-15.3,2.3-30.4,5.7-44.6,11.9ZM527,371c31.5-5.2,61.1-19.3,78.8-46.7,7.8-12,12.2-25.6,17.2-38.8l-19,13c-23.7,13.3-50.4,16.1-77,18.5v54ZM498,317c0-2.4-34.2-5.5-38.3-6.2-14.7-2.4-25.5-5.2-38.7-12.3s-12.2-8.4-19-11.5c9.9,26.5,23.5,53,48.7,67.8s30.6,12.9,47.3,16.2v-54ZM498,853v-453c-44-4.4-89.1-27.4-108-69-21.2,9.4-43.4,17.2-64.3,27.1-18.4,8.7-26.3,12.6-35.1,31.9s-16.2,42.2-22.5,61.5c-33.3,101.2-54.8,205.5-75.1,310l1.8,6.5c13.2,2.9,26,7.7,39.3,10.5s13.9,3.7,15.5,1.5l71.8-293.2c5.9-17.2,28.1-14.6,29.8,3.7,2.9,33.3-1.1,73.2-1.1,107s1.1,26.8,1.1,40c0,66.5-.3,133,0,199.4,47.2,14.4,97.7,15,146.9,16.1ZM527,400v453c48.8-1.3,98.9-2,145.9-16.1v-254.4c4.3-29.3-2.5-62,.1-91,1.4-16.1,18.2-22.6,27.9-8.8,22.9,80.9,40.1,163.8,60.5,245.5,4.4,17.6,9.1,35.2,13.8,52.7l55.8-12.9.7-7.3c-22-108.1-42.6-215.7-78.6-320.2-5.4-15.8-11.8-35.3-18.8-50.2-9.3-19.8-19-24.3-37.8-33.2-19.8-9.3-40.5-16.9-60.8-25.2-20.9,39.5-64.6,64.2-108.6,68.1Z"/>
  <path d="M393.7,650.2c16.8-3.5,17.8,11.1,17.3,23.3-1.7,36.5-7.8,73.2-10.3,109.7-2.6,9.2-13.1,14-21.6,9.2s-6.5-13.4-6.1-20.9c2.1-37.2,9.1-76.3,12.5-113.5,1.6-3.6,4.1-6.9,8.2-7.8Z"/>
  <path d="M622.7,650.2c9.3-1.9,15.5,2.1,17.2,11.4l11.7,117.7c.6,12.5-13.5,19.5-23.2,11.7-5.1-4.1-5.6-9.5-6.4-15.6-4.8-36.1-4.8-74.6-9-111,.4-5.9,3.3-12.9,9.8-14.2Z"/>
</svg>