<?xml version="1.0" encoding="UTF-8"?>
<svg id="Warstwa_1" xmlns="http://www.w3.org/2000/svg" version="1.1" viewBox="0 0 1024 1024">
  <!-- Generator: Adobe Illustrator 29.5.0, SVG Export Plug-In . SVG Version: 2.1.0 Build 137)  -->
  <path d="M461,206l102,1v-93.5c0-.4,1.6-6.2,1.9-7.1,2.4-6.1,7.4-8.6,13.7-9.3,8.9-1.1,34-1.2,42.8,0s13.9,7.4,14.6,16.4c3.5,40.5-5.4,85.7,3.5,125.5,6.1,27.4,23.1,82.7,43,102,6.2,6.1,15.1,9.8,16.4,19.6l-.4,551.5c-1.9,7.8-5.6,13-14,14h-125c-15.8-3-16.2-15.5-18.3-28.6-11.5-70.5-17.7-142.1-28.2-212.9-.3-1.7.5-1.7-2-1.5-1.2,13.4-2.5,26.9-4.1,40.4-6.5,51.3-13.4,102.9-21,154s-2.8,24.8-5.5,34.5-8.2,13.4-17.8,14.2c-38.9,3.4-82.6-2.6-122.1,0-7.1-.6-12-3.7-14.7-10.3l-.7-556.1c1.4-9.8,16-16.8,22.4-24.6,16.1-19.5,39.3-91,41.5-116.5s-3.3-73.9,0-108c.7-7.6,6.2-12.3,13.6-13.4,7.8-1.1,40.9-.9,47.4,1.4s11,8.4,11,13v94.5ZM419,128v80h11v-80h-11ZM605,128h-12v80h12v-80ZM355,367.5v54.5h314v-54.5c-24.6-19.1-36-49.6-45.7-78.3-5.7-16.7-10.5-33.9-14.3-51.2-5.8-.3-11.7.3-17.5,0-51.7-2.3-109.3-2.9-160.9,0-4.8.3-9.6-.4-14.4,0-12.9,45-22.2,99-61.1,129.4ZM401,452h-47c-.3.7,1,1.2,1,1.5v78.5c18.6.6,31.5-8.3,38-25.5s3.7-36.6,8-54.5ZM497,452h-69c.1,3.3,1.1,6.1,1.1,9.5-.6,27.3-4.5,59.7-23.1,81s-31.7,17.6-52,19.5c-.5.3,1,1.3,1,1.5v58.5h24.5c5.3,0,14.6,6,15.4,11.6,2.1,13.4-.2,33.6,0,48,.3,17.9,2.1,37.1,1.1,55s-1.3,22.6-12.2,25.8-20.2-.3-28.8,1.7v132h98l44-323.5v-120.5ZM596,452h-69v118.5s44,325.5,44,325.5h98v-132c-15.8-2.7-37.1,5-40.7-16.8,2.4-34.5-4.2-75.9-.1-109.6.6-4.9,3.5-10.5,8-13s7-2.6,7.4-2.6h25.5v-57.5c0-.4,1.4-1.5,1-2.5-17.3-2.2-31.3-2.6-45-14.5-26.3-22.7-30.2-62.9-29-95.5ZM669,452h-46c3.6,18.3,1.6,35.5,8.2,53.3,6.6,17.7,18.3,27.2,37.8,26.7v-80ZM366,650h-11v85h11v-85ZM657.3,650v85h11.7v-85h-11.7Z"/>
  <path d="M440.8,267.3c45.1,2.4,95.3-4.1,139.8-.3,10.2.9,17.3,4.2,17.5,15.5-2.1,32.1,2.7,67.4,0,99.1-.7,8.3-4.9,13.5-13.5,14.5h-145.1c-10.2-.3-13.6-9.8-14.4-18.6-1.9-21.1.4-44.8,1-65.9s-5.5-41.5,14.7-44.3ZM569,297h-114v70h114v-70Z"/>
</svg>