<?xml version="1.0" encoding="UTF-8" standalone="no"?> <svg xmlns="http://www.w3.org/2000/svg" xmlns:xlink="http://www.w3.org/1999/xlink" xml:space="preserve" width="1578" height="1578" version="1.1" style="shape-rendering:geometricPrecision; text-rendering:geometricPrecision; image-rendering:optimizeQuality; fill-rule:evenodd; clip-rule:evenodd" viewBox="0 0 1578 1578"> <defs> <style type="text/css"> <![CDATA[ .fil0 {fill:#DA251C} ]]> </style> </defs> <g id="Layer_x0020_1"> <metadata id="CorelCorpID_0Corel-Layer"></metadata> <path class="fil0" d="M789 0c436,0 789,353 789,789 0,436 -353,789 -789,789 -436,0 -789,-353 -789,-789 0,-436 353,-789 789,-789zm247 507c-3,6 -18,60 -18,71 0,16 6,18 9,23 5,9 -9,92 -8,111l9 7 -4 139c-1,31 2,46 25,56 9,4 19,7 29,10 15,5 16,7 33,5 30,-4 78,-3 78,-41 0,-14 -6,-23 -6,-34 11,-8 9,-3 10,-32 1,-8 2,-35 0,-41 -4,-17 -54,-14 -71,-13l-1 90c-8,2 -12,4 -21,1 -2,-13 0,-20 -5,-34 -4,-10 0,-25 0,-37 2,-32 -5,-41 8,-71 32,0 57,6 86,8 1,-10 5,-10 6,-16l-2 -66c-5,-33 -8,-44 -3,-80 3,-14 6,-26 -1,-38 -22,-42 -54,-10 -100,-36l-2 1c-1,1 -1,1 -2,3 -2,2 -2,3 -4,5 -13,13 -30,7 -45,9zm80 160c1,-22 2,-41 4,-62 1,-8 5,-25 3,-31 -2,-5 -13,-16 -17,-18l-3 5c-9,24 -21,93 13,106zm107 15c11,13 8,16 7,44 0,26 -3,84 0,104 1,9 3,14 3,24 -1,8 -3,16 -2,25 1,28 36,42 64,42 25,0 77,4 91,-11 13,-14 22,-59 23,-83 3,-34 2,-70 -1,-103 -2,-14 -10,-90 -8,-97 1,-7 7,-11 8,-18 0,-8 -4,-14 -4,-22 0,-13 8,-30 9,-44 -19,-16 2,-22 -35,-49 -6,-4 -12,-7 -21,-6 -7,1 -15,4 -23,5 -19,3 -33,-7 -73,9 -22,9 -17,8 -22,34 -5,28 -17,78 -9,100 5,14 -3,33 -7,46zm80 169l25 4c3,-16 9,-11 2,-31 -8,-23 -2,-41 2,-72 5,-37 3,-18 -1,-34 -2,-6 -1,-70 -1,-82 -1,-27 -2,-53 -2,-81l-25 0c0,15 1,43 3,57 1,8 4,9 1,16 -7,19 -5,53 -3,75 3,25 -6,4 -3,33 4,42 0,79 2,115zm-715 -169c12,14 8,17 8,44 0,18 0,33 -1,51 -1,16 -2,38 1,53 6,41 -1,25 1,49 1,26 33,41 62,42 25,0 77,4 92,-11 13,-13 22,-56 24,-80 6,-73 -11,-189 -10,-201 1,-8 7,-12 8,-19 2,-9 -4,-13 -4,-23 0,-13 9,-30 10,-44 -13,-10 -11,-27 -19,-36 -9,-9 -23,-20 -37,-19 -26,2 -3,6 -49,5 -18,-1 -33,3 -47,9 -23,10 -17,8 -22,34 -5,27 -17,78 -9,100 5,15 -4,34 -8,46zm81 169l25 4c2,-17 9,-10 2,-30 -6,-17 -6,-19 -3,-37 1,-11 3,-23 5,-35 5,-37 2,-20 -2,-35l-2 -162 -25 0c0,13 0,26 1,39 1,10 6,25 3,33 -7,19 -5,54 -3,76 2,20 -6,9 -4,30 5,37 0,85 3,117zm240 -341c-14,0 -22,-9 -35,-10 -8,0 -33,7 -37,10 -3,3 -15,22 -19,27 -12,18 -1,16 -1,36 1,8 -6,29 -8,38 -4,23 1,21 5,39 3,11 2,111 3,140 1,24 -7,7 -6,43 1,22 6,66 17,79 8,9 21,10 36,11 9,0 15,2 21,2 8,1 9,-5 16,-8 15,-7 66,5 85,6 1,-17 1,-34 0,-51 0,-7 -3,-16 -1,-22 3,-7 6,-7 6,-20 0,-13 -7,-28 -10,-40 -4,-17 8,-23 9,-38 1,-11 -3,-32 -4,-45 -1,-17 3,-30 3,-48 -1,-68 1,-130 -5,-198l-9 -66c-2,-10 -1,-11 -11,-14 -11,-4 -35,-3 -47,-1 -6,1 -4,1 -11,14 -9,17 3,99 3,116zm-12 214c-12,20 -12,2 -12,47l0 84c6,6 14,9 24,10 8,-41 2,-41 2,-49 2,-10 9,1 3,-26 -3,-17 -5,-21 -1,-39 11,-48 -2,-44 -5,-53 -5,-11 21,-120 -9,-133 -23,12 -9,52 -9,78 -1,30 -11,62 7,81zm-537 -210c-20,-8 3,-10 -39,-13 -14,-1 -36,-4 -47,2 0,23 6,48 6,76 0,18 -4,13 -6,24 -1,11 1,41 2,54 0,10 2,17 2,25 2,42 1,94 2,137 1,41 -22,84 -11,95 11,8 62,6 74,-1 4,-9 8,-74 9,-90 4,-34 5,-59 1,-93 -4,-32 5,-64 1,-95 -4,-28 -17,-64 4,-84 10,1 13,8 22,13 1,30 2,63 2,93 0,30 -14,33 -9,87 2,32 6,57 5,89 -3,55 -6,28 2,76l3 11c12,0 20,-3 31,-6 15,-4 17,1 25,9 2,-6 1,-5 8,-9l2 -1c-4,-12 -7,-15 -1,-27 11,-21 4,-79 2,-102 -2,-24 -1,-46 1,-69 2,-20 -5,2 -1,-33 1,-11 3,-23 3,-34 -3,-2 -4,-1 -8,-5 3,-25 14,-38 11,-68 -1,-12 -3,-14 6,-20 6,4 16,22 18,30 3,11 0,116 2,143 4,51 -4,41 -6,88 -2,36 2,48 2,69 0,8 -4,12 -6,19 8,8 15,14 32,16 12,0 38,1 49,-1 0,-8 4,-25 3,-32 -2,-11 -12,-12 -9,-26 6,-29 8,-35 7,-67 -1,-47 -1,-95 -2,-143 0,-29 3,-115 -8,-136 -4,-6 -17,-9 -24,-12 -9,-4 -15,-9 -26,-5 -16,5 -37,19 -53,20 -8,-13 -9,-24 -39,-22 -28,1 -34,14 -42,18zm-56 516l35 0 0 21c5,-7 11,-13 18,-17 8,-4 16,-7 26,-7 16,0 30,7 42,20 11,13 17,31 17,53 0,24 -6,43 -17,56 -12,13 -26,19 -42,19 -8,0 -15,-1 -22,-4 -6,-4 -13,-9 -20,-16l0 70 -37 0 0 -195zm37 69c0,16 3,28 9,35 7,8 14,12 23,12 9,0 16,-4 22,-11 6,-7 8,-18 8,-34 0,-15 -3,-26 -9,-33 -5,-8 -13,-11 -21,-11 -10,0 -17,3 -23,11 -6,7 -9,17 -9,31zm166 73l-37 0 0 -142 34 0 0 21c6,-10 12,-16 17,-19 4,-3 10,-5 16,-5 8,0 16,3 24,8l-11 32c-7,-4 -12,-6 -18,-6 -5,0 -10,1 -13,4 -4,3 -7,8 -9,16 -2,7 -3,23 -3,47l0 44zm62 -73c0,-12 3,-24 9,-36 6,-11 15,-20 26,-26 11,-7 24,-10 37,-10 22,0 39,7 53,21 14,14 20,32 20,53 0,22 -6,39 -20,53 -14,14 -31,21 -52,21 -13,0 -26,-3 -37,-8 -12,-6 -21,-15 -27,-26 -6,-12 -9,-25 -9,-42zm38 2c0,14 3,25 10,33 7,7 15,11 25,11 10,0 18,-4 24,-11 7,-8 10,-19 10,-33 0,-14 -3,-24 -10,-32 -6,-7 -14,-11 -24,-11 -10,0 -18,4 -25,11 -7,8 -10,18 -10,32zm134 -71l34 0 0 20c13,-15 27,-23 45,-23 9,0 16,2 23,6 7,4 12,9 16,17 7,-8 13,-13 20,-17 8,-4 15,-6 23,-6 11,0 19,3 27,7 7,4 12,10 16,18 2,6 4,16 4,30l0 90 -38 0 0 -81c0,-14 -1,-23 -3,-27 -4,-5 -9,-8 -17,-8 -5,0 -10,2 -14,5 -5,3 -8,8 -10,14 -2,6 -3,16 -3,29l0 68 -38 0 0 -78c0,-13 0,-22 -2,-26 -1,-4 -3,-7 -6,-9 -3,-2 -6,-3 -11,-3 -6,0 -11,2 -16,5 -4,3 -8,7 -10,13 -1,6 -3,16 -3,29l0 69 -37 0 0 -142zm236 69c0,-12 3,-24 10,-36 6,-11 14,-20 25,-26 12,-7 24,-10 38,-10 21,0 39,7 53,21 13,14 20,32 20,53 0,22 -7,39 -21,53 -13,14 -31,21 -52,21 -13,0 -25,-3 -37,-8 -11,-6 -20,-15 -26,-26 -7,-12 -10,-25 -10,-42zm39 2c0,14 3,25 10,33 6,7 14,11 24,11 10,0 18,-4 25,-11 6,-8 10,-19 10,-33 0,-14 -4,-24 -10,-32 -7,-7 -15,-11 -25,-11 -10,0 -18,4 -24,11 -7,8 -10,18 -10,32z"></path> </g> </svg> 